<?xml version="1.0" standalone="no"?>
<!DOCTYPE svg PUBLIC "-//W3C//DTD SVG 1.1//EN" "http://www.w3.org/Graphics/SVG/1.1/DTD/svg11.dtd">
<svg xmlns="http://www.w3.org/2000/svg">
<metadata>Copyright (C) 2025 by original authors @ fontello.com</metadata>
<defs>
<font id="fontello" horiz-adv-x="1000" >
<font-face font-family="fontello" font-weight="400" font-stretch="normal" units-per-em="1000" ascent="850" descent="-150" />
<missing-glyph horiz-adv-x="1000" />
<glyph glyph-name="add" unicode="&#xe800;" d="M875 350c0-39-32-71-71-71h-234v-233c0-39-32-71-71-71s-70 32-70 71v233h-233c-39 0-71 32-71 71s32 71 71 71h233v233c0 39 31 71 70 71s71-32 71-71v-233h234c39 0 71-32 71-71z" horiz-adv-x="1000" />

<glyph glyph-name="attachments" unicode="&#xe801;" d="M860 416c1-4 2-8 2-12s-1-9-2-12c-2-4-4-8-7-11l-341-342c-41-41-97-64-155-64s-114 23-155 64c-41 41-64 97-64 155s23 114 64 155l330 331c30 29 69 45 110 45 42 0 81-17 110-46 29-29 46-69 46-110 0-41-16-80-45-110l-330-331c-18-17-41-27-66-27s-49 10-67 27c-8 9-15 19-20 30-5 12-7 24-7 36s2 25 7 36c5 11 12 22 20 30l294 295c6 6 14 9 22 9 8 0 16-3 22-9 6-6 9-14 9-22 0-8-3-16-8-22l-294-295c-6-6-10-14-10-22s4-16 10-22c6-6 14-9 22-9s16 3 22 9l330 331c17 18 27 42 27 66s-10 49-28 66-41 28-66 28c-24 0-48-10-66-27l-330-331c-29-30-46-70-46-111 0-41 17-81 46-111 29-29 69-45 111-45 20 0 40 4 59 11 19 8 37 20 51 34l341 343c6 6 14 9 22 9s16-3 22-9c3-3 5-7 7-11z" horiz-adv-x="1000" />

<glyph glyph-name="back-arrow" unicode="&#xe802;" d="M153 416l121 122c3 3 6 5 10 7 4 2 8 3 12 3s8-1 12-3c4-2 7-4 10-7 6-6 9-14 9-22s-3-16-9-22l-111-112h637c9 0 16-4 22-9 6-6 9-14 9-23s-3-16-9-22c-6-5-13-9-22-9h-639l113-113c3-3 5-6 7-10 1-4 2-8 2-12s-1-8-2-12c-2-4-4-7-7-10-3-3-7-5-10-7-4-2-8-3-13-3s-8 1-12 3c-3 2-7 4-10 7l-121 121c-17 17-27 41-27 66s9 49 27 66z" horiz-adv-x="1000" />

<glyph glyph-name="calendar" unicode="&#xe803;" d="M719 663h-31v31c0 17-14 31-32 31s-31-14-31-31v-31h-250v31c0 17-14 31-31 31s-31-14-31-31v-31h-32c-86 0-156-70-156-157v-375c0-86 70-156 156-156h438c86 0 156 70 156 156v375c0 87-70 157-156 157z m-438-63h438c51 0 94-42 94-94v-31h-625v31c0 52 42 94 93 94z m438-562h-438c-51 0-93 42-93 93v282h625v-282c0-51-43-93-94-93z" horiz-adv-x="1000" />

<glyph glyph-name="capout-stat" unicode="&#xe804;" d="M750 600h-156c0 33-13 65-37 88-23 24-55 37-88 37h-219c-33 0-65-13-88-37-24-23-37-55-37-88v-594c0-8 3-16 9-22 6-6 14-9 22-9s17 3 22 9c6 6 10 14 10 22v313h250c0-33 13-65 36-89 24-23 55-36 89-36h187c33 0 65 13 88 36s37 56 37 89v156c0 33-13 65-37 88-23 24-55 37-88 37z m-562-219v219c0 17 6 33 18 44 12 12 28 19 44 19h219c16 0 32-7 44-19 12-11 18-27 18-44v-156c0-17-6-33-18-44-12-12-28-19-44-19h-281z m625-62c0-17-7-33-19-44-11-12-27-19-44-19h-187c-17 0-33 7-45 19-11 11-18 27-18 44v4c27 7 50 23 68 45 16 21 26 48 26 76v94h156c17 0 33-7 44-19 12-11 19-27 19-44v-156z" horiz-adv-x="1000" />

<glyph glyph-name="carousel" unicode="&#xe805;" d="M675 475v-250c0-26-21-47-47-47h-256c-26 0-47 21-47 47v250c0 26 21 47 47 47h256c26 0 47-21 47-47z m193-10c-8 13-21 22-34 22h-62c-23 0-42-23-42-50v-174c0-27 19-49 42-49h62c23 0 41 22 41 49v174c0 10-2 20-7 28z m-639 22h-62c-23 0-42-23-42-50v-174c0-27 19-49 42-49h62c23 0 41 22 41 49v174c0 10-2 20-7 28-8 13-21 22-34 22z" horiz-adv-x="1000" />

<glyph glyph-name="chats" unicode="&#xe806;" d="M605 643c-57 57-137 87-219 81-141-10-261-142-261-290v-157c0-63 52-115 115-115h140c162 0 297 115 307 261 6 82-24 162-82 219h0z m-339-246c-26 0-47 21-47 47s21 47 47 47 47-21 47-47-21-47-47-47z m140 0c-26 0-47 21-47 47s21 47 47 47 47-21 47-47-21-47-47-47z m141 0c-26 0-47 21-47 47s21 47 47 47 47-21 47-47-21-47-47-47z m328-172v-156c0-52-42-94-94-94h-156c-92 0-173 50-216 125 0 1-1 1-1 2 182 12 329 147 341 317 1 8 0 15 0 23 0 0 1 0 1 0 74-44 125-124 125-217z" horiz-adv-x="1000" />

<glyph glyph-name="client-experience-&amp;-communication" unicode="&#xe807;" d="M771 261c-38 35-97 35-134-1l-46-36c-100 43-171 114-217 217l37 46c36 37 36 96 0 133 0 0-58 75-59 77-38 37-99 37-135 1l-36-31c-36-36-56-85-56-137 0-238 317-555 555-555 52 0 101 20 138 57l29 33c37 38 37 99 0 137-1 1-77 58-77 58h0z m30-153l-28-33c-25-24-57-37-93-37-187 0-492 275-492 492 0 36 13 68 35 91l36 32c7 6 16 10 25 10 8 0 16-3 23-9 0 0 57-75 58-76 13-13 13-35 0-48-1-1-51-64-51-64-7-9-9-21-5-31 54-133 147-226 276-275 10-4 22-2 31 4 0 0 63 51 64 51 13 13 35 13 48 0 1-1 76-58 76-58 12-13 11-34-3-49h0z m47 589c-18 18-42 28-67 28h-125c-51 0-93-42-93-94v-207c0-16 9-30 23-38 6-3 13-5 19-5 9 0 19 3 27 9l67 54h82c52 0 94 42 94 93v94c0 25-10 49-27 66h0z m-35-160c0-17-14-31-32-31h-93c-8 0-14-2-20-7l-43-34v166c0 17 14 31 31 31h125c9 0 17-3 22-9 6-6 10-14 10-22v-94h0z" horiz-adv-x="1000" />

<glyph glyph-name="close" unicode="&#xe808;" d="M875 665c0-15-6-31-17-42l-274-273 274-273c11-12 17-27 17-42s-6-31-17-43c-12-11-27-17-43-17s-31 6-42 17l-273 274-273-274c-12-11-27-17-42-17s-31 6-42 17c-12 12-18 27-18 43s6 31 18 42l273 273-273 273c-12 12-18 27-18 42s6 32 18 43c11 11 26 17 42 17s31-6 42-17l273-274 273 274c12 11 27 17 42 17s32-6 43-17c11-12 17-27 17-43z" horiz-adv-x="1000" />

<glyph glyph-name="coaching-programs" unicode="&#xe809;" d="M188 647c0 43 35 78 78 78s78-35 78-78-35-78-78-78-78 35-78 78z m375-172c17 0 31 14 31 31s-14 32-31 32h-313c-69 0-125-56-125-125v-94c0-17 14-31 31-31s32 14 32 31v94c0 34 28 62 62 62h63v-156c0-17 14-31 31-31s31 14 31 31v156h188z m171 250h-296c-18 0-32-14-32-31s14-31 32-31h296c44 0 79-35 79-79v-156c0-43-35-78-79-78h-15v31c0 18-14 32-31 32h-63c-17 0-31-14-31-32v-31h-125c-17 0-31-14-31-31s14-31 31-31h265c78 0 141 63 141 140v156c0 78-63 141-141 141z m32-656c-40 0-76-15-101-41-12-13-12-33 1-45 12-11 32-11 44 2 26 27 85 27 111 0 6-7 14-10 23-10 8 0 15 3 21 8 13 12 13 32 1 45-24 26-61 41-101 41h0z m-266 0c-39 0-76-15-101-41-12-13-11-33 1-45 13-11 33-11 44 2 26 27 86 27 111 0 7-7 15-10 23-10 8 0 16 3 22 8 12 12 13 32 1 45-25 26-62 41-101 41h0z m-266 0c-39 0-76-15-100-41-12-13-12-33 1-45 12-11 32-11 44 2 25 27 85 27 111 0 6-7 14-10 23-10 7 0 15 3 21 8 13 12 13 32 1 45-25 26-61 41-101 41h0z m63 94c0 34-28 62-63 62s-62-28-62-62 28-63 62-63 63 28 63 63z m266 0c0 34-28 62-63 62s-62-28-62-62 27-63 62-63 63 28 63 63z m265 0c0 34-28 62-62 62s-63-28-63-62 28-63 63-63 62 28 62 63z" horiz-adv-x="1000" />

<glyph glyph-name="comment" unicode="&#xe80a;" d="M547 350c0-26-21-47-47-47s-47 21-47 47 21 47 47 47 47-21 47-47z m109 47c-26 0-47-21-47-47s21-47 47-47 47 21 47 47-21 47-47 47z m-312 0c-26 0-47-21-47-47s21-47 47-47 47 21 47 47-21 47-47 47z m531-58v-208c0-86-70-156-156-156h-185c-219 0-394 150-408 348-8 109 32 215 109 292 76 77 183 117 291 109 196-13 349-182 349-385z m-62 0c0 170-128 312-291 323-7 0-14 0-22 0-82 0-162-32-221-91-64-64-97-153-91-243 12-169 157-291 346-291h185c51 0 94 42 94 94v208h0z" horiz-adv-x="1000" />

<glyph glyph-name="community" unicode="&#xe80b;" d="M500 225c-25 0-49 7-69 21-21 14-37 33-46 56-10 23-12 48-7 72 4 25 16 47 34 64 17 18 40 30 64 35 24 4 49 2 72-8 23-9 42-25 56-46 14-20 21-44 21-69 0-33-13-65-37-88s-55-37-88-37z m0 188c-12 0-24-4-35-11-10-7-18-17-23-28s-6-24-3-36c2-12 8-24 17-32 9-9 20-15 32-17 12-3 25-2 36 3s21 13 28 23c7 10 11 22 11 35 0 17-7 32-19 44-11 12-27 18-44 18z m188-407c0 50-20 98-55 133s-83 55-133 55-97-20-132-55-55-83-55-133c0-8 3-16 9-22 6-6 13-9 22-9s16 3 22 9c6 6 9 14 9 22 0 33 13 65 37 89 23 23 55 36 88 36s65-13 88-36c24-24 37-56 37-89 0-8 3-16 9-22 6-6 14-9 22-9s17 3 22 9c6 6 10 14 10 22z m0 469c-25 0-49 7-70 21s-36 33-46 56c-9 23-12 48-7 72 5 25 17 47 34 64 18 18 40 30 64 35s50 2 72-8c23-9 43-25 57-46 13-20 21-44 21-69 0-33-14-65-37-88-24-24-55-37-88-37z m0 188c-13 0-25-4-35-11-10-7-19-17-23-28-5-12-6-24-4-36 3-12 9-24 17-32 9-9 20-15 32-17 13-3 25-2 37 3 11 5 21 13 28 23 7 10 10 22 10 35 0 17-6 32-18 44-12 12-28 18-44 18z m187-407c0 50-20 98-55 133-35 35-83 55-132 55-9 0-17-4-23-9-5-6-9-14-9-22s4-17 9-23c6-5 14-9 23-9 33 0 65-13 88-36 23-24 37-56 37-89 0-8 3-16 9-22 6-6 13-9 22-9s16 3 22 9c6 6 9 14 9 22z m-562 219c-25 0-49 7-70 21-20 14-36 33-46 56-9 23-12 48-7 72 5 25 17 47 34 64 18 18 40 30 64 35 24 4 50 2 72-8 23-9 43-25 57-46 13-20 21-44 21-69 0-33-14-65-37-88-24-24-55-37-88-37z m0 188c-13 0-25-4-35-11-10-7-19-17-23-28-5-12-6-24-4-36 3-12 9-24 17-32 9-9 20-15 32-17 13-3 25-2 37 3 11 5 21 13 28 23 7 10 10 22 10 35 0 17-6 32-18 44-12 12-28 18-44 18z m-125-407c0 33 13 65 36 89 24 23 55 36 89 36 8 0 16 4 22 9 5 6 9 14 9 23s-4 16-9 22c-6 5-14 9-22 9-50 0-98-20-133-55-35-35-55-83-55-133 0-8 3-16 9-22 6-6 14-9 22-9s17 3 22 9c6 6 10 14 10 22z" horiz-adv-x="1000" />

<glyph glyph-name="company-leaderboard" unicode="&#xe80c;" d="M766 225h-110v109c0 61-49 110-109 110h-94c-60 0-109-49-109-110v-15h-110c-60 0-109-49-109-110v-125c0-60 49-109 109-109h532c60 0 109 49 109 109v32c0 60-49 109-109 109z m-360 109c0 26 21 47 47 47h94c26 0 47-21 47-47v-296h-188v296z m-218-250v125c0 26 21 47 46 47h110v-218h-110c-25 0-46 21-46 46z m625 0c0-25-21-46-47-46h-110v125h110c26 0 47-21 47-47v-32z m-437 552c3 8 11 13 20 13h62l22 63c4 8 11 13 20 13s17-5 20-13l22-63h62c9 0 17-5 20-13 3-8 0-18-6-23l-50-41 21-62c2-8 0-17-7-23-8-5-17-6-25-1l-57 37-56-37c-4-3-8-4-12-4-4 0-9 2-13 4-7 6-10 15-7 23l20 63-50 40c-7 6-9 15-6 23z" horiz-adv-x="1000" />

<glyph glyph-name="compliance-friendly-marketing-templates" unicode="&#xe80d;" d="M749 552l-109 109c-41 41-96 64-155 64h-141c-86 0-156-70-156-156v-438c0-86 70-156 156-156h313c86 0 156 70 156 156v266c0 59-23 114-64 155z m-45-44c10-10 19-21 26-33h-136c-17 0-31 14-31 32v135c12-7 23-15 33-25l109-109z m46-377c0-51-42-93-93-93h-313c-52 0-94 42-94 93v438c0 52 42 94 94 94h141c5 0 10 0 15-1v-155c0-52 43-94 94-94h156c0-5 0-10 0-16v-266z m-141 219h-218c-43 0-78-35-78-78v-94c0-43 35-78 78-78h218c44 0 79 35 79 78v94c0 43-35 78-79 78z m16-172c0-9-7-15-16-15h-218c-9 0-16 6-16 15v94c0 9 7 16 16 16h218c9 0 16-7 16-16v-94z m-312 266c0 17 14 31 31 31h62c18 0 32-14 32-31s-15-31-32-31h-62c-17 0-31 14-31 31z" horiz-adv-x="1000" />

<glyph glyph-name="contract-processor" unicode="&#xe80e;" d="M848 354c-36 35-98 35-133 0l-219-219c-17-18-27-41-27-66v-63c0-17 14-31 31-31h63c25 0 48 10 66 28l219 218c17 18 27 42 27 67s-10 48-27 66z m-45-89l-218-218c-6-7-14-10-23-10h-31v32c0 8 3 16 9 22l219 218c12 12 32 12 44 0 6-6 9-13 9-22s-3-16-9-22h0z m-240 38c0 26-21 47-47 47s-47-21-47-47c0-10 3-21 9-31-10-8-23-16-40-16-14 0-28 4-41 11 26 36 41 80 41 114 0 52-43 94-94 94s-94-42-94-94c0-38 22-83 54-118-8-4-15-7-22-7-18 0-32-14-32-31s14-31 32-31c26 0 50 10 71 26 27-16 55-26 85-26 81 0 125 77 125 109z m-215 3c-21 25-35 54-35 75 0 17 14 32 31 32s31-14 31-32c0-22-11-51-27-75z m58-237c0-17-14-31-31-31h-94c-86 0-156 70-156 156v375c0 86 70 156 156 156h180c34 0 65-13 89-37l101-101c24-24 37-55 37-88v-55c0-18-14-32-31-32s-32 15-32 32v55c0 2 0 5 0 7h-93c-35 0-63 28-63 63v93c-2 0-5 0-7 0h-180c-52 0-94-42-94-93v-375c0-52 42-94 94-94h93c18 0 32-14 32-31z" horiz-adv-x="1000" />

<glyph glyph-name="copy" unicode="&#xe80f;" d="M786 623l-71 74c-9 8-20 16-31 21-12 5-24 7-37 7h-147c-36 0-71-12-99-35-28-23-47-55-54-90h-3c-42 0-81-16-111-46-29-29-46-69-46-110v-313c0-41 17-81 46-110 30-30 69-46 111-46h187c42 0 81 16 111 46s45 69 45 110v3c36 8 67 27 90 55 23 28 35 63 35 99v270c0 24-9 47-26 65z m-255-585h-187c-25 0-49 9-66 27-18 18-28 42-28 66v313c0 25 10 49 28 66 17 18 41 28 66 28v-250c0-42 16-81 46-111 29-29 69-46 110-46h125c0-24-10-48-27-66-18-17-42-27-67-27z m125 156h-156c-25 0-49 10-66 27-18 18-28 42-28 67v281c0 25 10 49 28 66 17 18 41 28 66 28h125v-63c0-17 7-32 18-44 12-12 28-18 45-18h62v-250c0-25-10-49-27-67-18-17-42-27-67-27z" horiz-adv-x="1000" />

<glyph glyph-name="credit-&amp;-pre-approval-tools" unicode="&#xe810;" d="M438 6c0-17-14-31-32-31h-125c-86 0-156 70-156 156v438c0 86 70 156 156 156h250c87 0 157-70 157-156v-63c0-17-14-31-32-31s-31 14-31 31v63c0 51-42 94-94 94h-250c-51 0-93-43-93-94v-438c0-51 42-93 93-93h125c18 0 32-14 32-32z m125 532c0 17-14 31-32 31h-250c-17 0-31-14-31-31s14-32 31-32h250c18 0 32 14 32 32z m-125-157c0 18-14 32-32 32h-125c-17 0-31-14-31-32s14-31 31-31h125c18 0 32 14 32 31z m-157-125c-17 0-31-14-31-31s14-31 31-31h63c17 0 31 14 31 31s-14 31-31 31h-63z m594-62c0-121-98-219-219-219s-218 98-218 219 98 219 218 219 219-99 219-219z m-62 0c0 86-70 156-157 156s-156-70-156-156 70-156 156-156 157 70 157 156z m-100 39l-70-67c-4-4-11-5-16 0l-35 34c-13 13-32 12-44 0-13-12-12-32 0-44l35-35c15-14 34-21 52-21s38 7 52 21l69 67c13 12 13 31 1 44-12 12-32 13-44 1h0z" horiz-adv-x="1000" />

<glyph glyph-name="csv" unicode="&#xe811;" d="M812 413h-218c-52 0-94 42-94 93v218c-5 1-10 1-15 1h-141c-86 0-156-70-156-156v-438c0-86 70-156 156-156h313c86 0 156 70 156 156v266c0 5-1 11-1 16h0z m-414-280c-10-19-31-33-55-33-34 0-61 27-61 61v64c0 34 27 61 61 61 24 0 45-13 55-33 7-13-2-28-17-28-7 0-14 3-17 10-4 7-12 12-21 12-13 0-23-10-23-23 0-2 1-58 1-62 0-13 10-23 22-23 9 0 17 5 21 12 3 7 10 10 17 10 15 0 24-15 17-28z m171 15c-5-28-32-48-64-48-25 0-50 10-66 28-7 8-7 21 1 28 8 7 20 7 28-1 9-10 23-16 37-16s24 8 25 16c2 11-13 18-18 20-24 8-45 18-45 18-18 12-27 30-24 49 3 20 18 36 39 43 40 12 74-16 76-17h0c8-7 9-19 2-27h0c-7-9-19-10-27-3-1 1-20 16-40 10-9-3-11-9-11-12-1-2-1-6 3-9 1 0 20-8 40-16 38-14 48-41 44-62h0z m113-29c-2-11-12-19-24-19s-21 8-23 18l-37 145c-3 12 6 24 19 24 8 0 16-6 18-15l22-87 18 87c2 8 10 15 19 15h0c12 0 21-12 19-23l-31-145z m-119 387v205c28-11 54-28 77-50l109-109c22-22 39-49 49-77h-204c-17 0-31 14-31 31z" horiz-adv-x="1000" />

<glyph glyph-name="delete" unicode="&#xe812;" d="M803 591c-5 6-13 9-22 9h-97c-7 35-26 67-54 90-28 23-63 35-99 35h-62c-36 0-71-12-99-35-28-23-47-55-54-90h-97c-9 0-16-3-22-9s-9-14-9-22 3-16 9-22 13-9 22-9h31v-407c0-41 17-81 46-110 29-30 69-46 110-46h188c41 0 81 16 110 46 30 29 46 69 46 110v407h31c9 0 17 3 22 9 6 6 10 13 10 22s-4 16-10 22z m-388 54c15 12 34 18 54 18h62c20 0 39-6 54-18 16-11 28-27 35-45h-240c7 18 19 34 35 45z m273-514c0-24-10-48-28-66-17-17-41-27-66-27h-188c-24 0-48 9-66 27-17 18-27 42-27 66v407h375v-407z m-273 41c-5 6-9 13-9 22v187c0 9 4 17 9 22s14 10 23 10 16-4 22-10c5-5 9-13 9-22v-187c0-9-4-16-9-22s-14-9-22-9-17 3-23 9z m125 0c-5 6-9 13-9 22v187c0 9 4 17 9 22 6 6 14 10 23 10s16-4 22-10c5-5 9-13 9-22v-187c0-9-4-16-9-22s-14-9-22-9-17 3-23 9z" horiz-adv-x="1000" />

<glyph glyph-name="documents" unicode="&#xe813;" d="M625 725h-250c-86 0-156-70-156-156v-438c0-86 70-156 156-156h250c86 0 156 70 156 156v438c0 86-70 156-156 156z m94-594c0-51-42-93-94-93h-250c-52 0-94 42-94 93v438c0 51 42 94 94 94h250c52 0 94-43 94-94v-438z m-63 407c0-18-14-32-31-32h-250c-17 0-31 14-31 32s14 31 31 31h250c17 0 31-14 31-31z m0-157c0-17-14-31-31-31h-250c-17 0-31 14-31 31s14 32 31 32h250c17 0 31-14 31-32z m-125-156c0-17-14-31-31-31h-125c-17 0-31 14-31 31s14 31 31 31h125c17 0 31-14 31-31z" horiz-adv-x="1000" />

<glyph glyph-name="double-tick" unicode="&#xe814;" d="M663 495c12 14 11 35-4 48-14 12-35 11-48-3l-269-307-158 160c-14 13-35 13-49 0-13-14-13-35 0-49l184-185c6-7 16-11 25-11 9 1 18 5 25 12l294 334z m204 0c12 14 11 35-4 48-14 12-35 11-48-3l-294-335c-12-14-11-36 3-48 15-12 36-11 49 3l294 335z" horiz-adv-x="1000" />

<glyph glyph-name="down-arrow" unicode="&#xe815;" d="M875 489c0-15-6-28-16-38l-245-246c-31-30-71-47-114-47s-83 17-113 47l-246 246c-10 10-16 23-16 38s6 27 16 37c5 5 11 9 17 12 7 3 14 4 21 4s14-1 20-4c7-3 13-7 18-12l245-245c5-5 11-9 18-12 6-2 13-4 20-4s15 2 21 4c7 3 13 7 18 12l245 245c5 5 11 9 18 12 6 3 13 4 20 4s14-1 21-4c6-3 12-7 17-12 10-10 16-23 16-37z" horiz-adv-x="1000" />

<glyph glyph-name="download" unicode="&#xe816;" d="M333 259c-5 6-9 14-9 22s4 16 9 22c6 6 14 9 22 9 9 0 17-3 23-9l91-91v482c0 8 3 16 9 22 6 6 14 9 22 9s16-3 22-9 9-14 9-22v-482s92 91 92 91c6 6 13 9 21 8 8 0 16-3 21-9 6-5 9-13 10-21 0-8-3-16-8-22l-101-100c-9-9-19-16-30-21-12-4-24-7-36-7s-25 3-36 7c-11 5-22 12-30 21l-101 100z m533-43c-6 6-14 9-22 9s-16-3-22-9c-6-6-9-14-9-22v-125c0-9-4-16-10-22s-13-9-22-9h-562c-9 0-16 3-22 9s-9 13-9 22v125c0 8-4 16-10 22-5 6-13 9-22 9s-16-3-22-9-9-14-9-22v-125c0-25 10-49 28-66 17-18 41-28 66-28h562c25 0 49 10 67 28 17 17 27 41 27 66v125c0 8-3 16-9 22z" horiz-adv-x="1000" />

<glyph glyph-name="edit" unicode="&#xe817;" d="M842 692c-21 21-50 33-80 33-31 0-59-12-81-33l-510-510c-15-15-26-32-34-51-8-19-12-40-12-60v-65c0-8 3-16 9-22 6-6 14-9 22-9h64c21 0 42 4 60 12 19 8 37 19 51 34l511 510c21 22 33 51 33 81s-12 59-33 80z m-555-627c-17-17-41-27-66-27h-33v33c0 12 2 24 7 36 5 11 12 22 20 30l388 387 72-72-388-387z m510 510l-78-78-72 72 78 79c5 4 11 8 17 11 6 2 13 4 19 4 7 0 14-2 20-4 6-3 12-7 16-11 5-5 9-11 11-17 3-6 4-13 4-19 0-7-1-14-4-20-2-6-6-12-11-17h0z" horiz-adv-x="1000" />

<glyph glyph-name="emoji-lineal" unicode="&#xe818;" d="M342 428c1 103 93 103 94 0-1-103-93-103-94 0z m267-78c61 1 61 155 0 156-62-1-62-155 0-156z m266 0c0-99-40-195-110-265-71-70-166-110-266-110-499 19-499 731 0 750 100 0 195-40 266-110 70-70 110-166 110-265z m-63 0c0 83-33 162-92 221-58 58-138 91-221 92-416-16-415-610 0-625 83 0 163 33 221 91 59 59 92 138 92 221z m-163-63c-48-18-99-29-150-31-52 2-102 13-151 31-6 1-12 1-18-2-6-2-10-6-14-11s-5-11-6-17c0-7 2-13 5-18 19-32 46-59 78-78 32-19 69-29 106-30 37 1 74 11 106 30 32 19 59 46 77 78 3 5 5 11 5 18 0 6-2 12-5 17-4 5-9 9-15 11-5 3-12 3-18 2z" horiz-adv-x="1000" />

<glyph glyph-name="emoji" unicode="&#xe819;" d="M500 725c-99 0-195-40-265-110-70-71-110-166-110-266 19-499 731-498 750 0 0 100-40 195-110 266-70 70-166 110-265 110z m109-251c13 0 25-5 34-14 8-8 13-20 13-33s-5-24-13-33c-9-9-21-14-34-14s-24 5-33 14c-8 9-13 21-13 33s5 25 13 33c9 9 21 14 33 14z m-218 0c12 0 24-5 33-14 9-8 14-20 14-33s-5-24-14-33c-9-9-21-14-33-14s-25 5-33 14c-9 9-14 21-14 33s5 25 14 33c8 9 20 14 33 14z m292-236c-19-33-45-60-77-79-32-19-69-29-106-30-37 1-74 11-106 30-32 19-58 46-77 79-3 5-5 11-5 17 0 7 2 12 6 18s8 9 14 11c6 2 12 3 18 1 48-18 99-28 150-30 51 2 102 12 150 30 6 2 12 1 18-1 6-2 10-6 14-11 3-5 5-11 6-18 0-6-2-12-5-17z" horiz-adv-x="1000" />

<glyph glyph-name="events-&amp;-networking" unicode="&#xe81a;" d="M719 663h-31v31c0 17-14 31-32 31s-31-14-31-31v-31h-250v31c0 17-14 31-31 31s-31-14-31-31v-31h-32c-86 0-156-70-156-157v-375c0-86 70-156 156-156h438c86 0 156 70 156 156v375c0 87-70 157-156 157z m-438-63h438c51 0 94-42 94-94v-31h-625v31c0 52 42 94 93 94z m438-562h-438c-51 0-93 42-93 93v282h625v-282c0-51-43-93-94-93z m-81 207c0-12-9-22-18-27l-49-27 22-59c4-12 0-24-10-32-10-7-24-7-33 0l-49 38-48-38c-10-7-24-7-34 0-10 8-14 20-9 32l21 59-49 27c-9 5-17 15-17 27 0 10 8 21 23 21h70l18 72c3 11 13 19 25 19 12 0 22-8 25-19l18-72h71c14 0 23-11 23-21z" horiz-adv-x="1000" />

<glyph glyph-name="experience" unicode="&#xe81b;" d="M719 600h-35c-7 35-26 67-54 90-28 23-63 35-99 35h-62c-36 0-71-12-99-35-28-23-47-55-54-90h-35c-41 0-81-16-110-46-29-29-46-69-46-110v-313c0-41 17-81 46-110 29-30 69-46 110-46h438c41 0 81 16 110 46 30 29 46 69 46 110v313c0 41-16 81-46 110-29 30-69 46-110 46z m-250 63h62c20 0 38-6 54-18 16-11 28-27 34-45h-238c6 18 18 34 34 45 16 12 35 18 54 18z m-188-125h438c25 0 49-10 66-28 18-17 28-41 28-66v-94h-625v94c0 25 9 49 27 66 18 18 42 28 66 28z m438-500h-438c-24 0-48 9-66 27-17 18-27 42-27 66v157h281v-32c0-8 3-16 9-22 6-6 14-9 22-9s16 3 22 9c6 6 9 14 9 22v32h282v-157c0-24-10-48-28-66s-41-27-66-27z" horiz-adv-x="1000" />

<glyph glyph-name="feed" unicode="&#xe81c;" d="M444 212l-290 174h0c-9 6-16 13-21 22-5 8-8 18-8 28s3 20 8 29c5 9 12 16 21 21l290 174c17 10 36 16 56 16s39-6 56-16l291-174c8-5 15-13 20-21 5-9 8-19 8-29s-3-20-8-29c-5-9-12-16-20-21l-291-174c-17-10-36-16-56-16s-39 6-56 16z m56-94c14 0 28 4 40 11l264 158c7 5 15 7 24 7 8 0 16-2 23-6 8-4 13-10 18-17 4-7 6-16 6-24 0-8-2-16-6-23-4-7-10-13-16-17l-264-158c-27-16-57-25-89-25s-61 9-88 25l-264 158c-7 4-13 10-16 17-4 7-7 15-7 23s3 17 7 24c4 7 10 13 17 17 8 4 16 6 24 6 9 0 17-3 24-7l263-158c13-7 27-11 41-11z" horiz-adv-x="1000" />

<glyph glyph-name="filter" unicode="&#xe81d;" d="M563-25c-7 0-14 2-19 6l-125 94c-4 3-7 7-9 11-2 4-4 9-4 14v176l-219 246c-15 18-26 40-29 63-4 23 0 47 9 68s25 40 45 52c20 13 43 20 66 20h444c24 0 47-7 66-20 20-12 35-31 45-52 10-21 13-45 10-68-4-23-14-45-30-63l-219-246v-270c0-8-3-16-9-22-6-6-14-9-22-9z m-94 141l62-47v219c0 7 3 15 8 20l227 256c8 9 13 19 14 30 2 12 0 23-4 34-5 10-12 19-22 25-10 6-21 10-32 10h-444c-11 0-22-4-32-10-9-6-17-15-22-25-4-11-6-22-4-34 1-11 6-21 14-30l227-256c5-5 8-13 8-20v-172z" horiz-adv-x="1000" />

<glyph glyph-name="front-arrow" unicode="&#xe81e;" d="M875 350c0-25-10-49-27-67l-121-121c-3-3-7-5-11-7-3-1-8-2-12-2s-8 1-12 2c-4 2-7 4-10 7-3 3-5 7-7 10-2 4-2 8-2 12s0 9 2 13c2 3 4 7 7 10l113 113h-639c-8 0-16 3-22 9-6 6-9 14-9 22s3 16 9 22c6 6 14 9 22 9h638l-112 112c-5 6-9 14-9 23s4 16 9 22c3 3 7 5 11 6 3 2 7 3 12 3s8-1 12-3c3-1 7-3 10-6l121-123c17-17 27-41 27-66z" horiz-adv-x="1000" />

<glyph glyph-name="goal-settings" unicode="&#xe81f;" d="M344 381c0-86 70-156 156-156s156 70 156 156c0 18 14 32 32 32s31-14 31-32c0-120-98-218-219-218s-219 98-219 218 98 219 219 219c17 0 31-14 31-31s-14-31-31-31c-86 0-156-70-156-157z m156-31c-17 0-31 14-31 31 0 9 3 17 9 22l62 62c-35 16-79 10-106-17-18-18-28-42-28-67s10-48 28-66c17-18 41-27 66-27s48 9 66 27c18 18 28 41 28 66 0 14-4 28-10 41l-62-63c-6-5-14-9-22-9h0z m40 115c9-4 19-10 26-17 8-8 14-17 18-26l54 53h81c8 0 16 3 22 9l62 63c9 9 12 22 7 34-5 12-16 19-29 19h-62v63c0 12-8 24-20 29-11 5-25 2-34-7l-62-63c-6-5-9-13-9-22v-81l-54-54z m188-340c71 63 116 154 116 256 0 12-1 23-2 35-2 17-17 29-34 28-17-2-30-17-28-35 1-9 2-18 2-28 0-155-127-281-282-281s-281 126-281 281 126 282 281 282c10 0 19-1 28-2 18-2 33 11 35 28 1 17-11 33-28 34-12 1-23 2-35 2-189 0-343-154-343-344 0-102 45-193 115-257l-64-101c-9-15-5-35 10-44 14-9 34-5 43 10l62 98c52-31 112-50 177-50s126 19 178 50l61-98c10-15 29-19 44-10 14 9 19 29 9 44l-64 101z" horiz-adv-x="1000" />

<glyph glyph-name="grid-view" unicode="&#xe820;" d="M328 116v-78c0-35-28-63-62-63h-78c-35 0-63 28-63 63v78c0 34 28 62 63 62h78c34 0 62-28 62-62z m485 62h-79c-34 0-62-28-62-62v-78c0-35 28-63 62-63h79c34 0 62 28 62 63v78c0 34-28 62-62 62z m-547 274h-78c-35 0-63-28-63-63v-78c0-34 28-62 63-62h78c34 0 62 28 62 62v78c0 35-28 63-62 63z m547 0h-79c-34 0-62-28-62-63v-78c0-34 28-62 62-62h79c34 0 62 28 62 62v78c0 35-28 63-62 63z m-547 273h-78c-35 0-63-28-63-62v-79c0-34 28-62 63-62h78c34 0 62 28 62 62v79c0 34-28 62-62 62z m273-547h-78c-35 0-63-28-63-62v-78c0-35 28-63 63-63h78c35 0 63 28 63 63v78c0 34-28 62-63 62z m0 274h-78c-35 0-63-28-63-63v-78c0-34 28-62 63-62h78c35 0 63 28 63 62v78c0 35-28 63-63 63z m0 273h-78c-35 0-63-28-63-62v-79c0-34 28-62 63-62h78c35 0 63 28 63 62v79c0 34-28 62-63 62z m274 0h-79c-34 0-62-28-62-62v-79c0-34 28-62 62-62h79c34 0 62 28 62 62v79c0 34-28 62-62 62z" horiz-adv-x="1000" />

<glyph glyph-name="grow-your-realtor-business" unicode="&#xe821;" d="M875 663v-125c0-18-14-32-31-32s-31 14-31 32v80l-127-126c-42-43-111-43-153 0l-79 79c-18 18-46 17-64 0l-211-212c-6-6-15-9-22-9s-17 3-23 9c-12 13-12 32 0 45l212 211c42 42 110 42 152 0l80-79c17-18 46-18 64 0l126 127h-80c-18 0-32 14-32 31s14 31 32 31h125c34 0 62-28 62-62z m-72-446l-95 16c-12 1-20 11-20 23 0 18 14 32 31 32h71c11 0 21-6 27-16 8-15 27-20 42-12 15 9 20 28 12 43-17 29-48 47-81 47h-9v31c0 18-14 32-31 32s-31-14-31-32v-31c-52 0-94-42-94-94 0-42 30-78 72-85l95-16c12-2 21-12 21-24 0-17-14-31-32-31h-71c-11 0-21 6-27 16-8 15-27 20-42 11-15-8-20-28-12-43 17-29 48-46 81-46h9v-32c0-17 14-31 31-31s31 14 31 31v32c52 0 94 42 94 93 0 43-30 79-72 86z m-615 71c-18 0-32-14-32-32v-250c0-17 14-31 32-31s31 14 31 31v250c0 18-14 32-31 32z m156 140c-17 0-31-14-31-31v-391c0-17 14-31 31-31s31 14 31 31v391c0 17-14 31-31 31z m156 0c-17 0-31-14-31-31v-391c0-17 14-31 31-31s31 14 31 31v391c0 17-14 31-31 31z" horiz-adv-x="1000" />

<glyph glyph-name="heart-filled" unicode="&#xe822;" d="M819 611c38-41 58-96 56-152 0-142-150-297-275-402-28-24-63-37-100-37s-72 13-100 37c-125 105-275 260-275 402-2 56 18 111 56 152 38 42 91 66 147 69 35-1 70-11 100-29 30-18 55-44 72-74 17 30 42 56 72 74 30 18 65 28 100 29 56-3 109-27 147-69z" horiz-adv-x="1000" />

<glyph glyph-name="heart-lineal" unicode="&#xe823;" d="M672 680c-35-1-70-11-100-29-30-18-55-44-72-74-17 30-42 56-72 74-30 18-65 28-100 29-56-3-109-27-147-69-38-41-58-96-56-152 0-142 150-297 275-402 28-24 63-37 100-37s72 13 100 37c125 105 275 260 275 402 2 56-18 111-56 152-38 42-91 66-147 69z m-112-575c-17-14-38-22-60-22s-43 8-60 22c-160 134-252 264-252 354-2 40 11 79 37 108 27 30 64 48 103 50 40-2 77-20 103-50 26-29 40-68 38-108 0-8 3-16 9-22 6-5 14-9 22-9s16 4 22 9c6 6 9 14 9 22-2 40 12 79 38 108 26 30 63 48 103 50 39-2 76-20 102-50 26-29 40-68 38-108 0-90-92-219-253-354h0z" horiz-adv-x="1000" />

<glyph glyph-name="hide-password" unicode="&#xe824;" d="M852 431c-28 46-64 88-105 122l87 88c13 12 12 32 0 44-12 12-32 12-44 0l-95-95c-59 35-126 53-195 52-193 0-303-132-352-211-31-49-31-112 0-161 28-46 64-88 105-122l-87-88c-13-12-13-31-1-44 12-12 32-13 44-1 0 0 0 1 1 1l95 96c59-35 127-54 195-53 193 0 304 132 352 211 31 49 31 112 0 161z m-651-128c-18 29-18 66 0 95 42 68 136 182 299 182 52 0 103-12 149-37l-63-63c-72 48-168 29-216-43-35-53-35-120 0-173l-72-72c-39 31-71 68-97 110z m393 47c0-51-42-93-94-93-14 0-28 3-40 9l124 125c6-13 10-27 10-41z m-188 0c0 52 42 94 94 94 14 0 28-3 40-9l-124-125c-6 13-10 27-10 40z m393-47c-42-68-136-182-299-182-52 0-103 12-149 37l63 62c72-47 169-28 216 44 35 53 35 120 0 173l72 72c39-31 71-68 97-110 18-30 18-67 0-96h0z" horiz-adv-x="1000" />

<glyph glyph-name="hire-a-loa" unicode="&#xe825;" d="M437 663c0 34 28 62 63 62s63-28 63-62-28-63-63-63-63 28-63 63z m-20-219c17-3 33 8 37 25 4 21 24 37 46 37s42-16 46-37c3-15 16-25 31-25 2 0 4 0 6 0 17 4 28 20 25 37-11 51-56 88-108 88s-97-37-108-88c-3-17 8-33 25-37h0z m350 94c34 0 62 27 62 62s-28 63-62 63-63-28-63-63 28-62 63-62z m-488-132c4-14 16-25 31-25 2 0 4 1 6 1 17 3 28 20 25 37-11 50-56 87-108 87s-97-37-107-87c-4-17 7-34 24-37 17-3 34 7 37 24 5 22 24 38 46 38s42-16 46-38z m-46 132c35 0 63 27 63 62s-28 63-63 63-62-28-62-63 28-62 62-62z m641-119c-10 50-55 87-107 87s-98-37-108-87c-3-17 8-34 25-37 17-3 33 7 37 24 4 22 23 38 46 38s41-16 46-38c3-14 16-25 30-25 2 0 5 1 7 1 17 3 28 20 24 37z m-130-274l-150 56v146c0 47-33 88-78 95-28 5-56-3-77-21-21-18-33-44-33-71v-236l-32 25s0 0 0 0c-38 33-96 31-131-6-35-38-33-97 5-132l17-17c6-6 14-9 22-9 28 0 42 34 22 54l-18 17c-13 12-13 32-2 44 12 13 32 13 45 2 0-1 0-1 1-1 0 0 54-44 54-44 15-12 35-14 52-5 18 8 28 25 28 44v264c0 9 4 18 11 24 7 6 17 8 26 6 15-2 26-17 26-34v-167c0-13 8-25 20-29l170-64c35-13 59-45 61-82 1-17 15-29 31-29 1 0 1 0 2 0 17 1 30 15 29 33-3 61-43 115-101 137h0z" horiz-adv-x="1000" />

<glyph glyph-name="instagram" unicode="&#xe826;" d="M873 505c-3 58-19 115-61 157-42 42-99 58-157 61-40 2-53 2-155 2s-115 0-155-2c-57-3-115-19-157-61-42-42-58-99-61-157-2-40-2-53-2-155s0-115 2-155c3-57 19-115 61-157 42-42 100-58 157-61 40-2 53-2 155-2s115 0 155 2c58 3 115 19 157 61 42 42 58 100 61 157 2 40 2 53 2 155s0 115-2 155z m-68-306c-2-41-11-84-41-113s-71-39-112-41c-40-2-52-2-152-2s-112 0-151 2c-41 2-84 12-113 41-30 30-39 72-41 113-2 39-2 51-2 151s0 112 2 152c2 40 11 83 41 112 30 30 72 39 113 41 39 2 51 3 151 3s112-1 152-3c40-2 82-11 112-41 30-30 39-71 41-112 2-40 3-52 3-152s-1-112-3-151z m-305 344c-106 0-192-87-192-193s86-192 192-192 193 86 193 192-87 193-193 193z m0-318c-69 0-125 56-125 125s56 125 125 125 125-56 125-125-56-125-125-125z m245 325c0-25-20-45-45-45s-45 20-45 45 20 45 45 45 45-20 45-45z" horiz-adv-x="1000" />

<glyph glyph-name="jpg" unicode="&#xe827;" d="M563 506v205c28-11 55-28 77-50l109-109c22-22 38-49 49-77h-204c-17 0-31 14-31 31z m-40-267c-3 2-6 4-9 5-4 2-7 2-11 2h-26v-53h26c4 0 7 0 11 1 3 2 6 4 9 6 2 3 4 6 6 9 1 3 2 7 2 10s-1 8-2 11c-2 3-4 6-6 9z m290 158v-266c0-86-70-156-157-156h-312c-86 0-156 70-156 156v438c0 86 70 156 156 156h141c4 0 9 0 14-1 0 0 1 0 1 0v-218c0-51 42-93 94-93h218c0-5 0-10 0-16z m-407-132c0 5-2 10-6 14-3 4-9 6-14 6s-11-2-14-6c-4-4-7-9-7-14v-105c0-3 0-6-1-9-1-3-3-6-5-8-3-2-5-4-8-5-3-1-7-2-10-2-4 0-9 2-12 4-4 3-7 6-9 10-1 3-3 5-5 7-2 2-4 3-7 4-2 1-5 1-8 1-2 0-5-1-7-2-3-2-5-3-7-5-1-2-3-5-4-7 0-3-1-6 0-8s1-6 2-8c5-11 13-20 24-27 10-6 21-10 34-10 8 0 16 2 24 5 8 3 15 8 21 14 6 6 11 13 15 21 3 8 5 16 5 25v105z m164-46c0 18-8 35-20 47-13 12-30 19-47 19h-34c-9 0-16-3-22-9-6-6-9-14-9-22v-139c0-5 2-10 5-14s9-5 14-5 10 2 14 5c3 4 5 9 5 14v38h27c8 0 17 2 25 5 8 4 15 8 22 15 6 6 11 13 14 21 4 8 5 17 5 25z m149-51c0 6-3 12-7 17-4 4-10 7-17 7h-23c-4 0-8-2-11-5s-5-7-5-11 2-8 5-11c3-3 7-5 11-5h8v-2c0-6-3-12-7-17-5-4-11-6-17-7-3 0-6 1-9 2-3 1-5 3-7 5-2 2-4 5-5 8-2 3-2 6-2 9v64c0 3 1 7 2 9 1 3 3 6 5 8 2 2 4 4 7 5s6 2 9 2c5 0 9-2 12-4 4-2 7-5 9-9 2-3 4-6 7-8 3-2 7-3 10-3 4 0 7 1 10 3 3 2 5 4 7 7 2 3 3 6 3 9 0 4-1 7-2 10-6 10-14 19-24 25-9 6-20 9-32 9-8 0-16-2-24-5-7-3-14-7-20-13s-10-13-13-20c-4-8-5-16-5-24v-66c0-8 1-16 5-23 3-8 7-15 13-21 6-5 13-10 20-13 8-3 16-5 24-5 17 0 32 7 44 19 12 11 18 27 19 44v10z" horiz-adv-x="1000" />

<glyph glyph-name="left-arrow" unicode="&#xe828;" d="M639-25c-15 0-28 6-38 16l-246 246c-30 30-47 71-47 113s17 83 47 114l246 245c10 10 23 16 38 16s27-6 37-16c5-5 9-10 12-17 3-7 4-14 4-21s-1-14-4-20c-3-7-7-13-12-18l-245-245c-5-5-9-11-12-18-2-6-4-13-4-20s2-15 4-21c3-6 7-12 12-17l245-246c5-5 9-11 12-17 3-7 4-14 4-21s-1-14-4-21c-3-6-7-12-12-17-10-10-23-16-37-16z" horiz-adv-x="1000" />

<glyph glyph-name="like" unicode="&#xe829;" d="M837 444c-15 16-33 30-54 39-20 10-42 15-64 15h-125l10 63c4 23 0 46-12 65-12 20-30 34-52 41-22 7-46 6-66-3-21-9-38-25-49-45l-59-121h-85c-42 0-81-17-111-46-29-30-45-69-45-111v-156c0-41 16-81 45-110 30-30 69-46 111-46h416c37 0 73 14 102 38 28 25 47 59 52 96l22 156c4 23 2 45-5 67-6 21-17 41-32 58z m-649-259v156c0 25 9 49 27 66 18 18 42 28 66 28h63v-344h-63c-24 0-48 10-66 28-17 17-27 41-27 66z m624 143l-23-156c-3-23-14-43-31-58-17-15-39-23-61-23h-291v352c3 3 6 6 7 9l69 139c2 4 6 8 10 11 5 3 10 5 15 6 5 0 11 0 16-2 5-2 9-5 12-9 4-3 6-8 7-12 1-5 2-10 1-14l-17-100c0-4 0-9 1-13 1-5 3-9 6-12 3-4 7-7 11-8 4-2 9-3 13-3h162c13 0 26-3 39-9 12-6 23-14 31-24 9-10 16-22 20-34 3-13 4-27 3-40z" horiz-adv-x="1000" />

<glyph glyph-name="link" unicode="&#xe82a;" d="M601 185c13-12 13-31 1-44l-102-102c-86-86-225-86-310 0-86 86-86 225 0 311l102 102c12 12 32 12 44 0s12-32 0-44l-102-102c-60-61-60-158 0-219 60-62 160-64 222-3l102 102h0s0 0 0 0c12 11 31 11 43 0z m210 476c-41 41-97 64-155 64-59 0-114-23-156-64l-102-102c-12-12-12-32 0-44s32-13 45 0l102 102c29 29 69 46 111 46 87 0 157-71 157-158 0-41-17-81-46-111l-102-101c-12-13-12-33 0-45 12-12 32-12 44 0l102 102c86 86 86 225 0 311z m-239-195l-188-188c-12-12-12-31-1-44 12-12 32-12 45-1 0 1 0 1 0 1l188 188c12 12 12 32-1 44-12 12-31 12-43 0z" horiz-adv-x="1000" />

<glyph glyph-name="linkedin" unicode="&#xe82b;" d="M300 490h-141c-12 0-22-10-22-22v-471c0-12 10-22 22-22h141c12 0 22 10 22 22v471c0 12-10 22-22 22z m-22-471h-97v427h97v-427z m-49 706c-51 0-92-41-92-92s41-93 92-93 93 42 93 93-42 92-93 92z m0-141c-26 0-48 22-48 48s22 49 48 49 49-22 49-49-22-48-49-48z m424-91c-33 0-66-8-96-23-1 11-10 20-22 20h-141c-12 0-22-10-22-22v-471c0-12 10-22 22-22h141c12 0 22 10 22 22v259c0 33 27 61 61 61s60-28 60-61v-259c0-12 10-22 22-22h141c12 0 22 10 22 22v286c0 116-94 210-210 210z m166-474h-97v237c0 57-47 104-104 104s-105-47-105-104v-237h-97v427h97v-17c0-8 5-16 13-19 8-4 17-3 23 2 30 24 66 37 104 37 92 0 166-75 166-166v-264z" horiz-adv-x="1000" />

<glyph glyph-name="location" unicode="&#xe82c;" d="M500 538c-25 0-49-8-69-21-21-14-37-34-46-57-10-22-12-47-7-72s16-46 34-64c17-17 40-29 64-34 24-5 49-2 72 7 23 10 42 26 56 46 14 21 21 45 21 70 0 33-13 65-37 88-23 23-55 37-88 37z m44-170c-11-11-27-18-44-18-12 0-24 4-35 11-10 7-18 16-23 28-4 11-6 24-3 36s8 23 17 32 20 15 32 17c12 3 25 1 36-4 11-4 21-12 28-22 7-11 11-23 11-35 0-17-7-33-19-44z m178 265c-59 59-139 92-222 92s-163-33-222-92-92-139-92-222 60-203 179-367c16-22 36-39 59-51 24-12 50-18 76-18 26 0 52 6 76 18 23 12 43 29 59 51 119 164 179 288 179 367 0 83-33 163-92 222z m-142-549c-10-13-21-23-35-30s-29-11-45-11-31 4-44 11c-14 7-26 17-35 30-107 148-167 264-167 327 0 65 26 128 73 174 46 46 108 72 173 72 66 0 128-26 174-72s73-109 73-174c0-63-60-179-167-327z" horiz-adv-x="1000" />

<glyph glyph-name="log-out" unicode="&#xe82d;" d="M510 247c6-6 9-14 9-22v-94c0-41-17-81-46-110-30-30-70-46-112-46h-78c-42 0-82 16-112 46-29 29-46 69-46 110v438c0 41 17 81 46 110s70 46 112 46h78c42 0 82-16 112-46 29-29 46-69 46-110v-94c0-8-3-16-9-22-6-6-14-9-22-9s-17 3-23 9c-6 6-9 14-9 22v94c0 25-10 49-28 66-17 18-41 28-67 28h-78c-25 0-49-10-67-28s-28-41-28-66v-438c0-24 10-48 28-66 18-17 42-27 67-27h78c26 0 49 9 67 27 18 18 28 42 28 66v94c0 8 3 16 9 22s14 9 23 9 16-3 22-9z m337 169l-144 144c-3 3-7 5-11 7-3 1-8 2-12 2-4 0-8-1-12-2-4-2-8-4-11-7-3-3-5-6-7-10-1-4-2-8-2-12 0-4 1-9 3-12 1-4 4-8 7-11l134-133-478-1c-8 0-16-3-22-9-6-6-9-14-9-22s3-16 9-22c6-6 14-9 22-9l480 1-136-135c-3-3-6-7-7-11-2-3-3-7-3-12 0-4 1-8 2-12s4-7 7-10 7-5 11-7c4-1 8-2 12-2 4 0 8 1 12 2s8 4 11 7l144 144c18 17 28 41 28 66 0 25-10 49-28 66z" horiz-adv-x="1000" />

<glyph glyph-name="mail" unicode="&#xe82e;" d="M719 694h-438c-41 0-81-17-110-46-29-29-46-69-46-110v-375c0-42 17-81 46-111 29-29 69-46 110-46h438c41 0 81 17 110 46 30 30 46 69 46 111v375c0 41-16 81-46 110-29 29-69 46-110 46z m-438-63h438c19 0 37-5 52-16 16-10 28-25 35-43l-240-239c-17-18-41-27-66-27s-49 9-66 27l-240 239c7 18 19 33 35 43 15 10 34 16 52 16z m438-562h-438c-24 0-48 10-66 27-17 18-27 42-27 67v328l202-202c29-29 69-46 110-46s81 17 110 46l203 202v-328c0-25-10-49-28-67-17-17-41-27-66-27z" horiz-adv-x="1000" />

<glyph glyph-name="marketing-&amp;-lead-generation" unicode="&#xe82f;" d="M875 6c0-17-14-31-31-31h-625c-52 0-94 42-94 94v625c0 17 14 31 31 31s32-14 32-31v-625c0-17 14-31 31-31h625c17 0 31-14 31-32z m-94 563h-125c-17 0-31-14-31-31s14-32 31-32h112l-152-147c-12-12-33-12-44 0-2 1-39 28-39 28-36 34-96 32-130-2l-144-137c-12-12-12-32 0-45 6-6 14-9 22-9s16 3 22 9l144 138c11 12 32 12 44 0 1-1 38-28 38-28 36-34 96-32 131 2l152 148v-113c0-17 14-31 32-31s31 14 31 31v125c0 52-42 94-94 94h0z" horiz-adv-x="1000" />

<glyph glyph-name="meetings" unicode="&#xe830;" d="M841 521c-21 10-46 8-65-6-2-1-3-2-4-3l-55-55c-6 80-73 143-155 143h-281c-86 0-156-70-156-156v-188c0-86 70-156 156-156h281c82 0 149 64 155 145l55-55c1-1 2-2 3-3 12-8 24-13 38-13 9 0 19 3 27 7 22 11 35 32 35 56v228c0 24-13 45-35 56z m-278-358h-282c-51 0-93 42-93 93v188c0 51 42 94 93 94h282c51 0 93-43 93-94v-188c0-51-42-93-93-93z m156 169v37l94 95 0-227-94 95h0z" horiz-adv-x="1000" />

<glyph glyph-name="more-options-vertical" unicode="&#xe831;" d="M500 564c-44 0-80 36-80 81s36 80 80 80 80-36 80-80-36-81-80-81z m0-589c-44 0-80 36-80 80s36 81 80 81 80-36 80-81-36-80-80-80z m0 295c-44 0-80 36-80 80s36 80 80 80 80-36 80-80-36-80-80-80z" horiz-adv-x="1000" />

<glyph glyph-name="more-options" unicode="&#xe832;" d="M286 350c0-44-36-80-81-80s-80 36-80 80 36 80 80 80 81-36 81-80z m589 0c0-44-36-80-80-80s-81 36-81 80 36 80 81 80 80-36 80-80z m-295 0c0-44-36-80-80-80s-80 36-80 80 36 80 80 80 80-36 80-80z" horiz-adv-x="1000" />

<glyph glyph-name="mute" unicode="&#xe833;" d="M551 718c-7 6-17 8-26 7-93-18-179-73-236-152h-8c-86 0-156-72-156-159v-127c0-88 70-159 156-159h8c57-79 143-135 236-152 2-1 4-1 6-1 7 0 14 3 20 7 7 6 11 15 11 25v686c0 10-4 19-11 25z m-51-671c-63 21-120 62-160 118l-9 13c-6 8-15 13-26 13h-24c-52 0-93 43-93 95v127c0 53 42 96 93 96h24c10 0 20 4 26 13l9 13c40 55 97 97 160 117v-605h0z m366 230c12-12 12-32 0-44-6-7-14-10-22-10s-16 3-22 10l-72 72-72-72c-6-7-14-10-22-10s-16 3-22 10c-12 12-12 32 0 44l72 73-72 73c-12 12-12 32 0 45 13 12 32 12 44 0l72-73 72 73c12 12 32 12 44 0s12-33 0-45l-72-73 72-73z" horiz-adv-x="1000" />

<glyph glyph-name="news" unicode="&#xe834;" d="M819 689c-36 30-82 42-128 34l-119-22c-29-5-54-20-72-40-18 20-43 35-71 40l-120 22c-45 8-92-4-128-34-36-30-56-74-56-120v-400c0-76 54-140 128-154l197-35c17-4 33-5 50-5s34 1 50 5l197 35c74 14 128 78 128 154v400c0 46-20 90-56 120z m-350-649c-3 0-204 37-204 37-45 8-77 47-77 92v400c0 28 12 54 33 72 17 14 38 22 60 22 6 0 12-1 17-2l120-22c29-5 51-31 51-61v-538h0z m344 129c0-45-33-84-77-92 0 0-202-37-205-37v538c0 30 22 56 52 61l119 22c27 5 55-2 77-20 21-18 34-44 34-72v-400z m-407 362c-3-15-16-26-31-26-2 0-99 18-99 18-17 3-28 19-25 36 3 17 19 28 36 25l94-17c17-3 28-19 25-37z m0-124c-3-15-16-26-31-26-2 0-99 18-99 18-17 3-28 19-25 36 3 17 19 28 36 25l94-17c17-3 28-19 25-36z m0-125c-3-15-16-26-31-26-2 0-99 18-99 18-17 3-28 19-25 36 3 17 19 28 36 25l94-17c17-3 28-19 25-36z m344 277c3-17-8-34-26-36 0 0-97-18-99-18-15 0-28 11-31 26-3 17 9 33 26 36l93 17c17 3 34-8 37-25z m0-124c3-17-8-33-26-36 0 0-97-17-99-17-15 0-28 10-31 25-3 17 9 33 26 36l93 17c17 4 34-8 37-25z m0-125c3-17-8-33-26-36 0 0-97-17-99-17-15 0-28 10-31 25-3 17 9 33 26 36l93 17c17 4 34-8 37-25z m-63-136c3-17-8-34-25-36 0 0-35-7-37-7-15 0-28 11-31 26-3 17 9 33 26 36l31 6c17 3 33-8 36-25z m-344-7c-2-15-15-26-30-26-2 0-37 7-37 7-17 3-28 19-25 36 3 17 19 28 36 25l31-6c17-3 29-19 25-36z" horiz-adv-x="1000" />

<glyph glyph-name="notifications" unicode="&#xe835;" d="M834 298l-59 214c-18 62-55 117-108 156-52 39-115 59-180 57-65-2-128-25-178-67-50-41-85-98-99-161l-46-207c-5-23-5-46 0-69 5-23 16-44 30-63 15-18 34-33 55-43 21-10 44-15 67-15h35c7-36 26-67 54-90 28-23 63-35 99-35s71 12 99 35c28 23 47 55 54 90h27c24 0 48 5 69 16 22 11 40 26 55 46 15 19 25 41 29 65s3 48-3 71z m-330-260c-19 0-38 6-54 17-15 11-27 27-34 45h176c-6-18-18-34-34-45s-34-17-54-17z m254 162c-9-12-20-21-33-28-13-6-27-9-41-9h-367c-14 0-28 3-41 9-13 6-24 15-33 26-8 11-15 24-18 37-3 14-3 28 0 42l46 207c11 49 39 94 78 126 39 33 89 51 139 53 51 1 101-15 142-45 42-31 71-74 85-123l59-213c4-14 5-29 2-43-3-14-9-28-17-39z" horiz-adv-x="1000" />

<glyph glyph-name="onboarding" unicode="&#xe836;" d="M212 257h-86v31c0 44 11 87 34 125 22 37 54 68 93 88 38 19 79 31 122 34-19-23-37-47-56-73-42-65-78-133-107-205z m400-88c-65-42-133-78-205-107v-86h31c44 0 87 11 125 34 37 22 68 54 88 93 19 38 31 79 34 122-22-19-47-37-73-56z m263 463c-4-136-102-271-299-412-53-35-110-65-169-90v18c0 29-12 56-32 77-21 20-48 32-77 32h-18c25 59 55 115 90 169 141 197 276 294 411 299 68 0 94-28 94-93z m-187-172c0 20-8 40-23 55-15 15-35 23-55 23s-41-8-56-23c-14-15-22-34-22-55s8-41 22-55c15-15 35-23 56-23s40 8 55 23c14 14 23 34 23 55z m-519-477c35 6 120 24 148 52 9 8 16 19 20 30 5 12 7 24 7 36s-2 24-7 36c-4 11-11 21-20 30-9 9-19 16-30 20-12 5-24 7-36 7-25 0-49-9-66-27-29-28-46-113-52-148l-8-44 44 7z" horiz-adv-x="1000" />

<glyph glyph-name="onboarding-new-lo-tools" unicode="&#xe837;" d="M184 167c-27-38-47-80-57-125-3-9-2-19 0-28 3-8 8-17 14-23 7-6 15-11 23-14 9-2 19-2 28-1 45 11 87 31 124 58 18 17 28 41 28 66 0 25-10 49-28 66-17 18-41 28-66 28-25 0-49-10-66-28z m88-89c-25-16-52-29-81-37 8 29 21 56 37 81 6 6 14 9 22 9 8 0 16-3 22-9 6-6 9-14 9-22 0-8-3-16-9-22h0z m416 381c0-20-9-40-23-55-15-14-35-23-56-23s-40 9-55 23c-14 15-23 35-23 55s9 41 23 56c15 14 35 23 55 23s41-9 56-23c14-15 23-35 23-56z m92 266c-74 0-147-16-214-49-67-32-126-80-171-139-50-1-98-14-143-36-51-24-93-64-119-114-6-15-9-30-7-45 1-15 6-30 15-43 8-13 20-24 34-31 13-8 29-11 44-11h78c29 0 57-12 77-33 21-20 32-48 33-77v-77c0-16 3-31 11-45 7-14 18-26 31-34 13-9 28-14 43-15 15-2 30 1 45 7 50 26 90 68 114 119 22 45 35 93 36 143 59 46 107 104 139 171 33 67 49 141 49 216 0 12-2 24-7 36-5 11-12 21-21 30-9 9-19 16-30 20-12 5-24 7-37 7z m-519-406h-42c-5 0-10 1-15 4-5 2-9 6-11 10-3 4-5 9-5 14s0 10 2 15c20 37 52 66 90 83 20 10 40 18 62 23-31-48-58-97-81-149z m334-189c-17-38-46-70-83-90-5-2-10-2-15-2-5 0-10 2-14 5-4 3-8 7-10 11-3 5-4 10-4 16v41c51 23 101 51 149 82-5-22-13-43-23-63h0z m4 126c-42-29-86-55-133-77-7 34-23 65-48 90-24 24-56 41-90 47 22 47 48 91 78 133 105 147 214 209 375 214 8 0 16-4 22-9 6-6 9-14 10-22-5-162-67-271-214-376h0z" horiz-adv-x="1000" />

<glyph glyph-name="password-management" unicode="&#xe838;" d="M787 404c-17 26-40 46-68 58v44c0 58-23 114-64 155-41 41-97 64-155 64s-114-23-155-64c-41-41-64-97-64-155v-44c-28-12-51-32-68-58s-25-55-25-85v-188c0-41 16-81 45-110s69-46 111-46h312c42 0 81 16 111 46 29 29 46 69 46 110v188c0 30-9 60-26 85z m-443 102c0 42 16 82 46 111 29 29 69 46 110 46s81-17 110-46c30-30 46-69 46-111v-31h-312v31z m406-375c0-24-10-48-27-66s-42-27-67-27h-312c-25 0-49 9-66 27-18 18-28 42-28 66v188c0 25 10 49 28 66 17 18 41 28 66 28h312c25 0 49-10 67-28s27-41 27-66v-188z m-228 147c6-5 9-13 9-22v-62c0-9-3-16-9-22-6-6-14-9-22-9s-16 3-22 9c-6 6-9 13-9 22v62c0 9 3 17 9 22 6 6 14 10 22 10s16-4 22-10z" horiz-adv-x="1000" />

<glyph glyph-name="payroll" unicode="&#xe839;" d="M750 288c0-52-42-94-94-94 0-17-14-31-31-31s-31 14-31 31h-9c-33 0-64 18-81 47-9 15-3 34 12 42 15 9 34 4 42-11 6-10 16-16 27-16h71c18 0 32 14 32 32 0 11-9 21-21 23l-95 16c-42 7-72 43-72 86 0 51 42 93 94 93 0 18 14 32 31 32s31-14 31-32h9c33 0 64-18 81-47 9-15 3-34-12-42-15-9-34-4-42 11-6 10-16 16-27 16h-71c-17 0-31-14-31-31 0-12 8-22 20-24l95-16c42-7 72-43 72-85z m125 218v-312c0-86-70-156-156-156h-438c-86 0-156 70-156 156v312c0 87 70 157 156 157h438c86 0 156-70 156-157z m-62 0c0 52-43 94-94 94h-438c-51 0-93-42-93-94v-312c0-52 42-94 93-94h438c51 0 94 42 94 94v312z m-407 0h-125c-17 0-31-14-31-31s14-31 31-31h125c18 0 32 14 32 31s-14 31-32 31z m0-125h-125c-17 0-31-14-31-31s14-31 31-31h125c18 0 32 14 32 31s-14 31-32 31z m0-125h-125c-17 0-31-14-31-31s14-31 31-31h125c18 0 32 14 32 31s-14 31-32 31z" horiz-adv-x="1000" />

<glyph glyph-name="pdf" unicode="&#xe83a;" d="M374 222c0-15-12-27-27-27h-26v53h26c15 0 28-12 28-26h0z m220 253h204c-11 28-27 55-50 77l-108 109c-22 22-49 39-77 50v-205c0-17 14-31 31-31h0z m-91-227h-26v-109h26c15 0 28 12 28 27v56c0 14-13 26-28 26z m310 149v-266c0-86-70-156-157-156h-312c-86 0-156 70-156 156v438c0 86 70 156 156 156h141c5 0 10 0 15-1v-218c0-51 42-93 94-93h218c0-5 1-10 1-16z m-400-175c0 36-30 66-66 66h-35c-17 0-31-14-31-32v-138c0-11 9-20 19-20s20 9 20 20v38h26c37 0 67 29 67 66h0z m157 0c0 36-30 66-67 66h-34c-18 0-32-14-32-32v-138c0-11 9-18 20-18h45c37 0 67 30 67 66v56h0z m149 46c0 11-8 19-19 19h-72c-11 0-19-9-19-19v-151c0-11 8-19 19-19s19 9 19 19v57h39c11 0 19 8 19 19s-8 19-19 19h-39v36h53c11 0 20 9 20 19v1z" horiz-adv-x="1000" />

<glyph glyph-name="personal-branding-&amp;-merch" unicode="&#xe83b;" d="M219 725c-52 0-94-42-94-94v-292c0-41 16-81 46-110l26-26c6-6 14-9 22-9s16 3 22 9l26 26c29 30 46 69 46 110v292c0 52-43 94-94 94z m31-386c0-25-10-48-27-66l-4-4-4 4c-18 18-27 41-27 66v292c0 18 14 32 31 32s31-14 31-32v-292z m579 289l-51 51c-30 30-69 46-111 46h-167c-69 0-125-56-125-125v-187c0-18 14-32 32-32s31 14 31 32v187c0 34 28 63 62 63h157v-94c0-35 28-63 62-63h94v-375c0-17 14-31 31-31s31 14 31 31v386c0 42-16 81-46 110z m-110 19c5-3 10-8 14-12l52-52c5-4 9-9 12-14h-78v78z m-63-328h-218c-52 0-94-42-94-94v-156c0-52 42-94 94-94h218c52 0 94 42 94 94v156c0 52-42 94-94 94z m0-63s2 0 3 0l-82-82c-17-16-44-16-60 0l-82 82s2 0 3 0h218z m0-218h-218c-18 0-32 14-32 31v128l67-67c19-20 46-31 74-31s55 11 74 31l67 67v-128c0-17-14-31-32-31z" horiz-adv-x="1000" />

<glyph glyph-name="phone" unicode="&#xe83c;" d="M847 201c18-18 28-43 28-68s-10-51-28-69l-29-33c-256-245-880 378-638 636l36 31c18 17 42 27 68 27s49-11 67-28c1-2 59-77 59-77 17-18 27-42 27-67 0-25-10-49-27-67l-36-45c20-49 49-93 86-131 38-37 82-67 131-87l46 37c18 17 42 27 66 27 25 0 49-10 67-27 0 0 76-58 77-59z m-43-46s-75 58-76 59c-7 6-15 10-24 10s-18-4-25-10c0-1-64-51-64-51-4-4-9-6-14-7-6-1-11 0-16 2-63 24-121 60-168 108-48 47-85 105-109 168-2 5-2 11-1 16 0 5 3 11 6 15 0 0 50 63 51 64 7 6 10 15 10 24s-3 18-10 24c-1 1-58 76-58 76-7 6-15 9-24 9-9 0-17-4-24-10l-36-31c-176-213 364-723 551-547l28 33c7 6 11 14 11 23 1 9-2 18-8 25z" horiz-adv-x="1000" />

<glyph glyph-name="photo" unicode="&#xe83d;" d="M473 333l332-332c-26-17-56-26-86-26h-438c-39 0-77 15-106 42-28 27-46 63-49 103l214 213c9 9 19 16 30 21 12 5 24 7 36 7s25-3 36-7c12-5 22-12 31-21z m215 267c-35 0-63-28-63-62s28-63 63-63 62 28 62 63-28 62-62 62z m187-31v-438c0-30-9-60-26-86l-332 333c-15 14-32 26-51 34-19 7-39 11-60 11s-41-4-59-11-37-20-51-34l-171-171v362c0 41 17 81 46 110 29 30 69 46 110 46h438c41 0 81-16 110-46s46-69 46-110z m-62-31c0 24-8 49-21 69-14 21-34 37-57 46-22 9-47 12-72 7-24-5-46-17-64-34s-29-40-34-64c-5-24-2-49 7-72 10-23 26-43 46-56 21-14 45-21 70-21 33 0 65 13 88 36 23 24 37 55 37 89z" horiz-adv-x="1000" />

<glyph glyph-name="pin" unicode="&#xe83e;" d="M156-25c9 0 17 3 22 9l207 207 39-40c30-31 70-49 113-51 14 0 28 3 42 8 21 7 39 20 52 37 14 17 22 38 24 60 3 32 1 64-7 95l-7 32c-1 6-1 11 1 16 1 5 4 10 7 14l50 50c2 1 5 3 7 3 1 0 2 0 3-1 1 0 2-1 3-1 15-17 36-27 59-30 23-2 46 4 65 16 11 8 20 18 27 30 6 12 11 25 12 39 1 13-1 27-6 40-5 12-12 24-21 34l-154 154c-16 16-37 26-59 28-23 3-45-3-64-16-11-8-21-18-27-30-7-11-11-25-12-38-1-14 1-27 5-40 5-13 12-25 22-34l2-3c2-1 3-4 3-6s-1-5-3-7l-50-50c-3-4-8-7-13-8-6-2-11-2-16 0l-26 6c-32 8-64 11-96 7-23-2-45-11-63-25-18-15-32-34-39-56-8-22-10-46-5-70 6-23 17-44 34-61l55-57-208-208c-4-4-7-10-8-16-1-6-1-12 2-18 2-6 6-11 11-14 5-3 11-5 18-5z m161 429c3 10 10 20 18 27 9 7 20 11 31 12 7 1 14 1 22 1 17 0 35-2 52-7l26-6c16-4 32-4 48 0s30 13 41 24l50 50c14 14 21 32 21 51s-7 38-21 51l-2 3c-4 3-6 7-8 11-1 4-2 9-1 14 0 4 1 9 4 13 2 4 5 7 9 10 7 4 15 5 22 4 8-1 15-5 20-10l154-154c4-4 6-7 8-12 1-4 2-9 1-13 0-5-2-9-4-13-2-4-5-7-9-10-7-4-15-6-22-5-8 1-15 5-21 11-6 7-14 12-22 16-9 3-18 5-27 5-20 0-38-8-52-21l-50-50c-11-11-19-25-24-41-4-15-4-31-1-47l7-33c6-24 8-49 6-74-1-10-5-19-11-28-6-8-15-14-24-17-16-4-33-4-49 1-16 5-30 15-40 27l-138 143c-8 8-14 19-17 31-2 12-2 24 3 35z" horiz-adv-x="1000" />

<glyph glyph-name="play" unicode="&#xe83f;" d="M742 476c19-14 35-33 46-55 11-22 17-46 17-71s-6-49-17-71c-11-21-27-40-46-55l-299-219c-23-17-50-27-79-29-29-3-58 3-84 16-26 13-47 33-62 58-15 24-23 53-23 82v437c0 29 8 57 23 81 15 25 36 45 62 58 26 13 55 19 84 16 28-2 56-12 79-29l298-219h0z" horiz-adv-x="1000" />

<glyph glyph-name="preferred-service-providers" unicode="&#xe840;" d="M687 318c-35 35-88 41-129 19l-151 151v96c0 32-18 61-45 77l-93 54c-29 17-66 12-90-12l-32-32c-24-24-28-61-12-90l54-93c16-27 45-44 77-44h96l151-151c-9-16-13-34-13-52 0-29 11-57 32-78l157-156c20-20 48-32 77-32 31 0 65 16 85 40 35 43 31 109-11 150l-153 153z m-444 201l-54 94c-2 4-2 10 2 14l32 32c4 4 10 5 15 2l93-54c8-4 13-13 13-23v-78h-78c-10 0-18 5-23 13z m560-464c-9-11-21-17-35-17-13-1-26 4-35 14l-157 156c-9 9-14 20-14 33s5 24 14 33c9 9 21 14 33 14s25-5 34-14l153-153c19-19 22-48 7-66z m-352 136c12-13 12-32 0-44l-140-140c-21-20-48-32-77-32s-66 16-85 40c-36 43-31 109 10 150l177 177c13 12 32 12 44 0 13-13 13-33 0-45l-177-176c-18-19-21-48-6-66 8-11 21-17 34-17 13-1 26 4 36 13l140 140c12 12 32 12 44 0h0z m-17 389c29 73 95 128 172 142 27 4 54 5 80 0 21-4 38-19 44-39 7-23 0-48-19-67l-73-70c-15-15-18-39-5-54 7-9 17-14 28-15 11-1 22 3 30 11l82 79c15 15 37 21 59 14 21-6 36-24 40-45 4-26 4-54 0-81-9-49-35-94-73-128-6-6-13-8-20-8-9 0-17 3-24 10-11 13-10 32 3 44 27 25 46 58 52 93 3 17 4 34 1 51l-76-73c-20-20-48-31-77-30-28 2-55 15-73 38-33 40-29 101 9 138l73 70h1c-17 3-34 2-51-1-56-10-104-49-125-102-6-16-24-24-40-18-16 6-24 25-18 41h0z" horiz-adv-x="1000" />

<glyph glyph-name="product-&amp;-program-search" unicode="&#xe841;" d="M594 538c8 0 16-4 22-10 6-5 9-13 9-22s-3-16-9-22c-6-6-14-9-22-9h-250c-9 0-16 3-22 9-6 6-9 14-9 22s3 17 9 22 13 10 22 10h250z m241-554c-6-6-14-9-22-9s-17 3-23 9l-75 75c-22-14-48-21-74-21-28 0-55 8-78 23-24 16-42 38-52 63-11 26-14 54-8 82 5 27 19 52 38 72s45 33 72 38 56 3 82-8c25-10 47-28 63-51 15-24 24-51 24-79 0-26-8-52-22-74l75-75c6-6 9-14 9-22s-3-17-9-23z m-194 116c15 0 30 5 43 13 13 9 23 21 29 35 6 15 7 30 4 45-3 16-10 30-21 40-11 11-25 19-40 22-16 3-31 1-46-5-14-5-26-15-35-28-8-13-13-28-13-44 0-20 9-40 23-55 15-14 35-23 55-23z m-141-62h-187c-25 0-49 9-67 27-17 18-27 42-27 66v438c0 25 10 49 27 66 18 18 42 28 67 28h375c8 0 16-4 22-10 5-5 9-13 9-22v-250c0-8 3-16 9-22 6-6 14-9 22-9s16 3 22 9c6 6 9 14 9 22v250c0 25-9 49-27 67-18 17-42 27-66 27h-375c-42 0-81-16-111-46-29-29-46-69-46-110v-438c0-41 17-81 46-110 30-30 69-46 111-46h187c8 0 16 3 22 9 6 6 9 14 9 22s-3 17-9 22c-6 6-14 10-22 10z" horiz-adv-x="1000" />

<glyph glyph-name="real-estate-agent-resources" unicode="&#xe842;" d="M812 547v115c0 17-14 31-31 31s-31-14-31-31v-73l-162 109c-54 36-122 36-175 0l-219-147c-43-29-69-77-69-129v-291c0-86 70-156 157-156h437c86 0 156 70 156 156v291c0 49-23 95-63 125z m-437-509c0 68 56 124 125 124s125-56 125-124h-250z m438 93c0-52-43-93-94-93h-31c0 103-85 187-188 187s-187-84-187-187h-32c-51 0-93 42-93 93v291c0 31 15 60 41 77l219 148c15 10 34 16 52 16s37-6 53-16l218-148c26-17 42-46 42-77v-291z m-313 374c-69 0-125-56-125-125s56-124 125-124 125 56 125 124-56 125-125 125z m0-187c-34 0-62 28-62 62s28 63 62 63 63-28 63-63-29-62-63-62z" horiz-adv-x="1000" />

<glyph glyph-name="recruitment" unicode="&#xe843;" d="M297 506c60 0 109 49 109 110s-49 109-109 109-109-49-109-109 49-110 109-110z m0 157c26 0 47-21 47-47s-21-47-47-47-47 21-47 47 21 47 47 47z m375-469c77 0 141 63 141 140s-64 141-141 141-141-63-141-141 63-140 141-140z m0 219c43 0 78-35 78-79s-35-78-78-78-78 35-78 78 35 79 78 79z m-283-269c23-24 23-64-1-88l-69-71c-6-7-14-10-22-10s-16 3-22 9c-12 12-13 31-1 44l40 41h-64c-69 0-125 56-125 125v31c0 17 14 31 31 31s32-14 32-31v-31c0-35 28-63 62-63h63l-39 41c-11 13-11 32 1 44 13 12 33 12 44-1l70-71z m464-168c-3-1-6-1-9-1-14 0-26 9-30 22-18 61-76 103-142 103s-124-42-142-103c-5-16-22-26-39-21-16 5-26 22-21 39 26 87 109 148 202 148s176-61 202-148c5-17-5-34-21-39h0z m-404 345c-4-1-8-2-11-2-13 0-25 8-30 20-16 44-61 74-111 74s-95-30-111-74c-6-16-24-24-41-18-16 6-24 24-18 40 26 68 94 114 170 114s145-46 170-114c6-16-2-34-18-40h0z" horiz-adv-x="1000" />

<glyph glyph-name="referral-partner-perks" unicode="&#xe844;" d="M359 319c-27 0-55 8-78 24s-41 37-52 63c-10 25-13 54-7 81 5 27 18 52 38 72 20 20 45 33 72 39 27 5 56 2 81-8 26-11 48-29 64-52 15-23 23-51 23-78 0-38-15-73-41-100-26-26-62-41-99-41z m0 219c-15 0-30-5-43-14-13-8-23-20-29-35-5-14-7-30-4-45 3-15 10-29 21-40 11-11 25-18 40-21 16-3 31-2 46 4 14 6 26 16 35 29 8 13 13 28 13 43 0 21-9 41-23 55-15 15-35 23-55 23z m235-532v16c0 62-25 122-69 166s-103 68-166 68-121-24-165-68c-44-44-69-104-69-166v-16c0-8 3-16 9-22 6-6 14-9 22-9s17 3 22 9c6 6 10 14 10 22v16c0 46 18 89 50 121 32 33 76 51 121 51s90-18 122-51 50-76 50-121v-16c0-8 4-16 9-22 6-6 14-9 23-9s16 3 22 9c5 6 9 14 9 22z m281 157c0 42-12 83-35 119-23 35-56 63-94 80-39 17-82 23-123 17-42-7-81-25-112-54-3-2-6-6-8-9-2-4-3-8-3-12 0-4 0-9 2-12 1-4 3-8 6-11 3-3 6-6 10-7 4-2 7-3 12-3 4 0 8 0 12 2 4 1 7 3 10 6 23 20 50 33 80 38 30 5 61 1 88-12 28-12 51-32 68-57 16-26 25-55 25-85 0-9 3-17 9-23 6-5 14-9 22-9s16 4 22 9c6 6 9 14 9 23z m-203 281c-28 0-55 8-78 24-23 15-41 37-52 63-11 25-13 54-8 81 5 27 19 52 39 72 19 20 44 33 72 39 27 5 55 2 81-8 26-11 48-29 63-52 15-23 24-51 24-78 0-38-15-73-41-100-27-26-63-41-100-41z m0 219c-15 0-31-5-43-14-13-8-23-20-29-35-6-14-8-30-5-45 3-15 11-29 22-40 11-11 25-18 40-21 15-3 31-2 45 4 15 6 27 16 35 29 9 13 13 28 13 43 0 21-8 41-23 55-14 15-34 23-55 23z" horiz-adv-x="1000" />

<glyph glyph-name="right-arrow" unicode="&#xe845;" d="M324-9c-5 5-9 11-12 17-3 7-4 14-4 21s1 14 4 20c3 7 7 13 12 18l245 245c5 5 9 11 12 18 3 6 4 13 4 20s-1 15-4 21c-3 7-7 13-12 18l-245 245c-5 5-9 11-12 18-3 6-4 13-4 20s1 14 4 21c3 6 7 12 12 17 10 10 23 16 38 16s27-6 37-16l246-246c30-30 47-71 47-113s-17-83-47-114l-246-246c-10-10-23-15-37-15s-28 5-38 15z" horiz-adv-x="1000" />

<glyph glyph-name="search" unicode="&#xe846;" d="M866 28l-186 186c51 63 76 142 70 222-6 80-43 154-102 208-60 54-138 83-218 81-80-2-157-35-213-91-57-57-90-134-92-214-2-80 27-158 81-217 53-60 128-96 208-103 80-6 160 19 222 70l186-186c6-6 14-9 22-9s16 3 22 9c6 6 9 14 9 22s-3 16-9 22z m-428 134c-49 0-97 15-138 42-41 28-73 66-92 112-19 46-24 96-15 144 10 49 34 93 69 128 35 35 79 59 128 69 48 9 98 5 144-14 46-19 85-51 112-93 28-41 42-89 42-138 0-67-26-130-73-177-47-47-111-73-177-73z" horiz-adv-x="1000" />

<glyph glyph-name="send" unicode="&#xe847;" d="M810 452l-561 264c-32 16-69 10-95-13-27-24-36-61-24-94 1-1 138-259 138-259 0 0-135-258-135-259-12-33-3-70 23-94 17-15 37-22 58-22 13 0 25 3 37 9l559 264c40 18 65 58 65 102 0 44-25 84-65 103z m-622 180c-3 13 5 22 7 24 3 3 13 11 27 4 0 0 561-265 561-265 8-3 14-8 19-14h-480l-134 251z m595-328l-559-264c-13-6-23 1-26 4-3 2-11 11-7 24l131 251h480c-5-6-11-12-19-15z" horiz-adv-x="1000" />

<glyph glyph-name="settings" unicode="&#xe848;" d="M500 475c-25 0-49-7-69-21-21-14-37-33-46-56s-12-48-7-72c4-24 16-47 34-64 17-18 40-30 64-34 24-5 49-3 72 7 23 9 42 25 56 46 14 20 21 44 21 69 0 33-13 65-37 88-23 24-55 37-88 37z m44-169c-11-12-27-18-44-18-12 0-24 3-35 10-10 7-18 17-23 28-5 12-6 24-3 36 2 12 8 24 17 32s19 15 32 18c12 2 25 1 36-4 11-5 21-13 28-23 7-10 11-22 11-35 0-17-7-32-19-44z m290-72c-6 24-22 44-44 57h0s-13 8-13 8c6 34 6 68 0 102l13 8c11 6 20 15 28 24 7 10 13 21 16 33 3 12 4 25 3 37-2 12-6 24-12 34-6 11-14 20-24 28-10 7-21 13-33 16-12 3-24 4-36 3-13-2-24-6-35-12l-14-8c-26 22-56 40-89 51v16c0 25-10 49-27 66s-42 28-67 28-48-10-66-28c-17-17-27-41-27-66v-16c-33-11-63-29-89-51l-14 8c-22 12-47 16-72 9-24-6-44-22-57-44-12-21-15-47-9-71 7-24 22-44 44-57l14-8c-6-34-6-68 0-102l-14-8c-22-13-37-33-44-57-6-24-3-50 9-71 13-22 33-38 57-44 24-7 50-3 72 9l14 8c26-22 56-39 89-51v-16c0-25 9-49 27-66s41-28 66-28 49 10 67 28c17 17 27 41 27 66v16c33 12 63 29 89 52l14-9c21-12 47-15 71-9s45 22 57 44c13 21 16 47 9 71z m-123 175h0c11-39 11-79 0-117-2-7-2-14 1-21 3-6 7-11 13-15l34-19c8-5 13-12 15-19 2-8 1-17-3-24-4-7-11-13-19-15-8-2-17-1-24 3l-34 20c-6 3-13 5-20 4-6-1-13-4-18-9-28-29-63-49-101-59-7-1-13-5-17-11-4-5-6-12-6-19v-39c0-9-4-16-9-22-6-6-14-9-23-9s-16 3-22 9c-5 6-9 13-9 22v39c0 7-2 14-6 19-4 6-10 10-17 11-39 10-74 30-101 59-5 5-12 8-18 9s-14 0-20-4l-34-19c-4-3-8-4-12-4s-8-1-12 0-8 3-11 6c-4 2-6 5-8 9-2 4-4 8-4 12-1 4-1 8 1 12s2 8 5 11c2 3 6 6 9 8l34 20c6 3 11 8 13 15 3 6 4 13 2 20-11 38-11 79 0 117 2 7 1 14-2 20s-7 12-13 15l-34 20c-7 4-12 11-14 19s-2 16 3 24c4 7 11 12 19 14 8 2 16 1 23-3l34-19c6-4 13-5 20-4 7 0 13 4 18 9 28 28 63 48 101 58 7 2 13 6 17 11 5 6 7 13 7 20v39c0 8 3 16 9 22 6 6 14 9 22 9s16-3 22-9c6-6 9-14 9-22v-39c0-7 3-14 7-20 4-5 10-9 17-11 38-10 73-30 101-58 5-5 11-9 18-10 7 0 14 1 20 4l34 20c3 2 7 4 11 4 5 1 9 0 13-1 4-1 7-3 11-5 3-3 6-6 8-9 2-4 3-8 4-12 0-4 0-8-1-12-1-4-3-8-5-11-3-4-6-7-10-8l-34-20c-6-4-10-9-13-15-3-7-3-14-1-20z" horiz-adv-x="1000" />

<glyph glyph-name="share" unicode="&#xe849;" d="M656 131c0-86-70-156-156-156h-219c-86 0-156 70-156 156v219c0 86 70 156 156 156h32c17 0 31-14 31-31s-14-31-31-31h-32c-51 0-93-42-93-94v-219c0-51 42-93 93-93h219c52 0 94 42 94 93 0 17 14 32 31 32s31-14 31-32z m192 410l-169 174c-12 13-32 13-44 1-13-12-13-32-1-44l161-165h-264c-86 0-156-70-156-157v-156c0-17 14-31 31-31s31 14 31 31v156c0 52 43 94 94 94h263l-160-166c-12-12-12-32 0-44 6-6 14-8 22-8s16 3 23 9l168 174c37 36 37 96 1 132h0z" horiz-adv-x="1000" />

<glyph glyph-name="show-password" unicode="&#xe84a;" d="M852 431c-48 79-159 211-352 211s-303-132-352-211c-15-24-23-52-23-81s8-56 23-81c49-79 159-211 352-211s304 132 352 211c15 25 23 53 23 81s-8 57-23 81z m-53-129c-42-68-136-181-299-181s-257 114-299 181c-9 15-13 31-13 48s5 34 13 48c42 68 136 181 299 181s257-113 299-181c9-14 13-31 13-48s-4-33-13-48z m-299 204c-31 0-61-9-87-26-25-17-45-41-57-70-12-28-15-60-9-90 6-30 21-58 42-80 22-22 50-37 80-43 31-6 62-3 91 9 28 12 53 32 70 58 17 25 26 55 26 86 0 42-17 82-46 111-29 29-69 46-110 46z m0-250c-18 0-37 6-52 16-15 10-28 25-35 42-7 17-9 36-5 54 4 19 12 35 26 48 13 13 29 22 48 26 18 3 37 2 54-5 17-8 31-20 42-35 10-15 16-34 16-52 0-25-10-49-28-66-17-18-41-28-66-28z" horiz-adv-x="1000" />

<glyph glyph-name="social-proof-&amp;-reputation-building" unicode="&#xe84b;" d="M401 350c115 0 208 93 208 208s-94 209-208 209-209-94-209-209 94-208 209-208z m0 347c76 0 139-62 139-139s-63-139-139-139-139 63-139 139 62 139 139 139z m69-451c0-19-16-35-35-35-134 0-243-109-243-243 0-19-15-35-35-35s-34 16-34 35c0 172 140 312 312 312 19 0 35-15 35-34z m474-96l-82-67 34-103c4-14 0-30-12-39-12-9-28-9-40-1l-96 62-94-63c-6-4-12-6-19-6-7 0-15 3-21 7-12 9-17 24-12 38l32 105-82 67c-11 10-15 25-10 39 5 13 18 22 32 22h104l37 104c5 13 18 23 33 23s27-9 32-23l37-104h104c15 0 28-9 33-23 5-13 1-29-10-38h0z" horiz-adv-x="1000" />

<glyph glyph-name="star" unicode="&#xe84c;" d="M748 51c14-44-37-81-74-54l-146 107c-16 13-39 13-56 0l-146-107c-37-27-88 10-73 54l56 174c6 19-1 41-17 53l-147 107c-38 28-18 87 28 87h180c21 0 39 13 46 33l55 174c14 44 77 44 91 0l56-174c6-20 25-33 45-33h181c46 0 65-59 28-87l-147-107c-17-12-24-34-17-53l56-174z" horiz-adv-x="1000" />

<glyph glyph-name="subscription" unicode="&#xe84d;" d="M500 725c-207 0-375-168-375-375s168-375 375-375 375 168 375 375-168 375-375 375z m162-363l-68-55 28-86c4-11 0-24-10-31-9-8-23-8-33-2l-79 52-77-52c-5-3-10-5-16-5-6 0-12 2-17 6-10 7-14 20-10 31l27 87-69 55c-9 8-12 20-8 31 4 12 15 19 27 19h86l30 82c4 11 15 19 27 19s23-8 27-19l30-82h86c12 0 23-7 27-19 4-11 0-24-8-31v0z" horiz-adv-x="1000" />

<glyph glyph-name="support" unicode="&#xe84e;" d="M389 428c0-17 4-33 11-48-16-20-25-44-26-70-30 30-48 72-48 118 0 107 98 191 208 168 65-13 118-66 132-131 4-19 5-38 3-57-2-15-16-27-31-27h-2c-18 0-31 17-29 35 1 12 0 25-3 38-9 40-41 71-80 80-72 17-135-37-135-106h0z m-122 41c8 49 33 95 71 130 47 45 110 67 176 63 123-8 220-116 218-246 0-54-46-97-100-97h-75c-8 26-31 45-60 45-34 0-62-28-62-63s28-62 62-62c17 0 32 6 43 17h92c88 0 162 71 163 158 2 164-120 300-277 310-84 6-163-23-223-79-47-44-78-102-89-165-3-19 12-36 31-36 15 0 28 10 30 24h0z m231-275c-115 0-215-72-249-178-5-17 5-34 21-40 17-5 34 5 39 21 25 79 103 135 189 135s165-56 189-135c4-13 17-22 30-22 3 0 6 1 9 2 17 5 26 22 21 39-33 107-133 178-249 178h0z" horiz-adv-x="1000" />

<glyph glyph-name="technology-&amp;-apps" unicode="&#xe84f;" d="M398 725h-103c-93 0-170-76-170-170v-103c0-37 31-68 68-68h205c37 0 68 31 68 68v205c0 37-31 68-68 68z m0-273h-205v103c0 56 46 102 102 102h103v-205z m307 273h-103c-37 0-68-31-68-68v-205c0-37 31-68 68-68h205c37 0 68 31 68 68v103c0 94-76 170-170 170z m102-273h-205v205h103c56 0 102-46 102-102v-103z m-409-136h-205c-37 0-68-31-68-68v-103c0-93 77-170 170-170h103c37 0 68 31 68 68v205c0 37-31 68-68 68z m0-273h-103c-56 0-102 46-102 102v103h205v-205z m409 273h-205c-37 0-68-31-68-68v-205c0-37 31-68 68-68h103c94 0 170 77 170 170v103c0 37-31 68-68 68z m0-171c0-56-46-102-102-102h-103v205h205v-103z" horiz-adv-x="1000" />

<glyph glyph-name="tick" unicode="&#xe850;" d="M367 79c-21 0-42 9-57 24l-171 171c-19 19-19 49 0 67 18 19 48 19 67 0l161-161 427 427c19 19 49 19 67 0 19-18 19-48 0-67l-437-437c-15-15-36-24-57-24z" horiz-adv-x="1000" />

<glyph glyph-name="time" unicode="&#xe851;" d="M500-25c-207 0-375 168-375 375s168 375 375 375 375-168 375-375-168-375-375-375z m0 688c-172 0-312-141-312-313s140-312 312-312 313 140 313 312-141 313-313 313z m156-313c0 17-14 31-31 31h-94v157c0 17-14 31-31 31s-31-14-31-31v-188c0-17 14-31 31-31h125c17 0 31 14 31 31z" horiz-adv-x="1000" />

<glyph glyph-name="training-&amp;-professional-development" unicode="&#xe852;" d="M250 100c17 0 31-14 31-31s14-31 32-31h218c18 0 32 14 32 31v31c0 17 14 31 31 31h46c47 0 87 35 93 82l11 79c2 15 15 27 31 27l38-1c-3 26-77 180-119 231-54 72-136 114-225 114-17 0-31 14-31 31s14 31 31 31c109 0 209-50 274-137 41-50 132-225 132-269 0-30-22-63-62-63h-11l-7-51c-10-78-76-136-155-136h-15c0-52-42-94-94-94h-218c-52 0-94 42-94 94 0 17 14 31 31 31z m-47 313h94c43 0 78-35 78-79v-93c0-43-35-78-78-78h-94c-43 0-78 35-78 78v93c0 44 35 79 78 79z m-15-172c0-9 7-16 15-16h94c8 0 16 7 16 16v93c0 9-8 16-16 16h-94c-8 0-15-7-15-16v-93z m187 422v-125c0-35-28-63-62-63h-125c-35 0-63 28-63 63v125c0 34 28 62 63 62h125c34 0 62-28 62-62z m-40-4c-12 13-33 13-45 0l-57-59-24 25c-13 13-33 14-46 0-11-12-11-31 0-43l24-25c25-26 66-26 91 0l57 58c12 12 12 32 0 44h0z" horiz-adv-x="1000" />

<glyph glyph-name="training-calendar" unicode="&#xe853;" d="M719 663h-31v31c0 17-14 31-32 31s-31-14-31-31v-31h-250v31c0 17-14 31-31 31s-31-14-31-31v-31h-32c-86 0-156-70-156-157v-375c0-86 70-156 156-156h438c86 0 156 70 156 156v375c0 87-70 157-156 157z m-438-63h438c51 0 94-42 94-94v-31h-625v31c0 52 42 94 93 94z m438-562h-438c-51 0-93 42-93 93v282h625v-282c0-51-43-93-94-93z m0 250c0-18-14-32-31-32h-375c-18 0-32 14-32 32s14 31 32 31h375c17 0 31-14 31-31z m-219-125c0-18-14-32-31-32h-156c-18 0-32 14-32 32s14 31 32 31h156c17 0 31-14 31-31z" horiz-adv-x="1000" />

<glyph glyph-name="twitter" unicode="&#xe854;" d="M571 408l279 317h-66l-242-276-194 276h-223l293-417-293-333h66l256 291 205-291h223l-303 433h0z m-90-104l-30 42-236 330h102l190-266 30-42 247-346h-101l-202 282h0z" horiz-adv-x="1000" />

<glyph glyph-name="upload" unicode="&#xe855;" d="M333 553c-5 6-9 14-9 22s4 16 9 22l101 101c9 8 19 15 30 20 12 5 24 7 36 7s25-2 36-7c11-5 22-12 30-20l101-101c6-6 9-14 9-22s-3-16-9-22c-6-6-14-9-22-9s-17 3-22 9l-91 91v-482c-1-8-4-16-10-22-6-6-14-9-22-9s-16 3-22 9c-6 6-9 14-9 22v482s-91-91-91-91c-6-6-14-9-23-9s-16 3-22 9z m533-337c-6 6-14 9-22 9s-16-3-22-9c-6-6-9-14-9-22v-125c0-9-4-16-10-22-5-6-13-9-22-9h-562c-9 0-16 3-22 9-6 6-9 13-9 22v125c0 8-4 16-10 22-5 6-13 9-22 9s-16-3-22-9c-6-6-9-14-9-22v-125c0-25 10-49 28-66s41-28 66-28h562c25 0 49 10 67 28 17 17 27 41 27 66v125c0 8-3 16-9 22z" horiz-adv-x="1000" />

<glyph glyph-name="vendor-store" unicode="&#xe856;" d="M875 215c-5-30-28-52-58-52h-19c-32 0-58 27-58 62 0-35-26-62-58-62h-20c-32 0-58 27-58 62 0-35-26-62-58-62h-19c-29 0-53 22-58 52-1 7 1 13 3 19l11 27c15 35 49 58 87 58h203c38 0 73-23 87-58l11-27c3-6 4-12 3-19h0z m-62-84c-17 0-31-14-31-31v-31c0-17-14-31-32-31h-156c-17 0-31 14-31 31v31c0 17-14 31-31 31s-32-14-32-31v-31c0-52 43-94 94-94h156c52 0 94 42 94 94v31c0 17-14 31-31 31z m-625 407c0 103 84 187 187 187s188-84 188-187-84-188-188-188-187 84-187 188z m62 0c0-69 56-125 125-125s125 56 125 125-56 125-125 125-125-56-125-125z m125-250c-138 0-250-113-250-250v-32c0-17 14-31 31-31s32 14 32 31v32c0 103 84 187 187 187 18 0 32 14 32 31s-14 32-32 32z" horiz-adv-x="1000" />

<glyph glyph-name="verification" unicode="&#xe857;" d="M500 725c-207 0-375-168-375-375s168-375 375-375 375 168 375 375-168 375-375 375z m194-328l-139-136c-24-24-56-36-87-36s-62 11-87 35l-59 58c-12 12-13 32 0 44 12 13 31 13 44 1l59-58c24-24 62-24 87 0l138 136c12 12 32 12 44 0 12-13 12-32 0-44z" horiz-adv-x="1000" />

<glyph glyph-name="video" unicode="&#xe858;" d="M588 359c2-1 3-2 4-4 1-1 2-3 2-5 0-1 0-3-1-4-1-2-2-3-3-4l-168-84c-2-1-3-1-5-1-2 0-4 0-5 1-2 1-3 2-4 4-1 2-2 3-2 5v166c0 2 1 4 2 6 1 1 2 3 4 3 1 1 3 2 5 2 2 0 5-1 7-2l164-83z m287 210v-438c0-41-16-81-46-110-29-30-69-46-110-46h-438c-41 0-81 16-110 46-29 29-46 69-46 110v438c0 41 17 81 46 110 29 30 69 46 110 46h438c41 0 81-16 110-46 30-29 46-69 46-110z m-219-219c0 13-3 26-10 38-7 11-17 20-28 26l-165 83c-11 6-24 10-37 9-12 0-25-3-36-9-11-7-20-16-27-27-6-11-10-24-10-37v-166c0-13 4-25 10-36 6-11 16-21 27-27 11-7 24-10 37-10 12 0 24 3 34 9l168 84c11 6 21 16 27 27 7 11 10 23 10 36z" horiz-adv-x="1000" />

<glyph glyph-name="voice" unicode="&#xe859;" d="M500 100c66 0 130 27 177 73 47 47 73 111 73 177v125c0 66-26 130-73 177-47 47-110 73-177 73s-130-26-177-73-73-110-73-177v-125c0-66 27-130 73-177 47-46 111-73 177-73z m-72 272c-5 6-13 9-22 9h-93v63h93c9 0 17 3 22 9s10 14 10 22-4 16-10 22c-5 6-13 9-22 9h-91c8 44 30 84 64 112s77 45 121 45c44 0 87-16 121-45 33-28 56-68 63-112h-90c-9 0-17-3-22-9s-10-14-10-22 4-16 10-22c5-6 13-9 22-9h93v-63h-93c-9 0-17-3-22-9-6-6-10-14-10-22s4-16 10-22c5-6 13-9 22-9h90c-7-44-30-84-63-112-34-29-77-44-121-44s-87 15-121 44c-34 28-57 68-64 112h91c8 0 16 3 22 9s9 14 9 22-3 16-9 22z m447-53c0-91-36-179-101-243-64-64-152-101-243-101h-62c-91 0-179 37-243 101-64 64-101 152-101 243 0 8 3 16 9 22 6 6 14 9 22 9s17-3 22-9 10-14 10-22c0-75 29-146 82-199 53-53 124-82 199-82h62c75 0 146 29 199 82s82 124 83 199c0 8 3 16 9 22 6 6 13 9 22 9s16-3 22-9c6-6 9-14 9-22z" horiz-adv-x="1000" />

<glyph glyph-name="website" unicode="&#xe85a;" d="M500 725c-74 0-147-22-208-63-62-41-110-100-138-168-29-69-36-144-22-217 15-73 51-140 103-192 53-53 119-88 192-103 73-14 148-7 217 21 68 29 127 77 168 139 41 61 63 134 63 208 0 99-39 195-110 265-70 70-165 110-265 110z m270-219h-100c-23 53-53 101-88 146 79-22 147-74 188-146z m-129-156c-1-32-6-63-15-94h-252c-9 31-14 62-14 94 0 32 5 63 14 94h252c9-31 14-62 15-94z m-242-156h202c-27-52-61-101-101-144-40 43-74 92-100 144z m0 312c27 53 61 101 101 144 40-43 74-91 101-144h-202z m20 146c-36-44-66-93-89-146h-100c41 72 109 124 189 146z m-217-208h107c-8-31-12-62-12-94 0-32 4-63 12-94h-107c-19 61-19 127 0 188z m28-250h100c23-52 53-101 89-145-80 21-148 73-189 145z m352-145c36 44 65 93 88 145h100c-41-71-109-124-188-145z m216 207h-107c8 31 12 62 12 94 0 32-4 63-12 94h107c19-61 19-127 0-188h0z" horiz-adv-x="1000" />

<glyph glyph-name="youtube" unicode="&#xe85b;" d="M631 357c0-11-6-22-16-27l-165-89c-5-2-10-4-15-4-5 0-11 2-15 5-10 5-15 15-15 26v180c0 10 5 20 15 26 9 5 20 5 30 0l166-90c9-6 16-16 16-27z m244 21v-56c0-60-5-120-6-123v0c0-6-7-59-32-86-30-33-64-36-80-38-2 0-3 0-4 0h-1c-100-8-249-9-251-9h0s0 0 0 0c-8 0-187 3-245 9h-1c-2 0-5 0-8 1-19 2-55 6-83 37-26 27-33 80-33 86v1c-1 2-6 62-6 122v56c0 60 5 120 5 122v1c1 6 8 59 33 86 31 33 65 37 81 39 1 0 2 0 3 0h2c100 7 249 8 251 8h0s0 0 0 0c1 0 151-1 250-8h2c1 0 2 0 3 0 17-2 51-6 81-38 26-28 33-81 33-87v-1c0-2 6-62 6-122z m-44 0c0 56-5 114-5 118-2 17-9 49-21 61h0c-20 21-40 23-54 25-2 0-3 0-4 0-97 7-242 8-247 8-5 0-150-1-247-8-1 0-3 0-4 0-13-2-34-4-53-25-12-13-19-44-21-61-1-5-6-62-6-118v-56c0-56 5-114 6-118 2-17 9-48 21-60l0-1c18-19 40-21 57-23 3-1 6-1 9-2 55-5 232-8 240-8 6 0 150 2 246 9 2 0 3 0 5 0 14 2 33 4 52 24 12 14 19 47 21 61 1 5 6 63 6 118v56z" horiz-adv-x="1000" />

<glyph glyph-name="notification-filled" unicode="&#xe85c;" d="M838 257c0-52-41-94-93-94h-490c-9 0-18 1-27 4-49 15-77 68-62 117l73 238c27 118 132 203 254 203 117 0 219-78 251-190l89-247c4-10 5-21 5-31z m-304-279c62 13 110 61 123 122h-307c17-84 100-139 184-122z" horiz-adv-x="1000" />

<glyph glyph-name="pending-filled" unicode="&#xe85d;" d="M500 725c-207 0-375-168-375-375s168-375 375-375 375 168 375 375-168 375-375 375z m125-406h-125c-17 0-31 14-31 31v188c0 17 14 31 31 31s31-14 31-31v-157h94c17 0 31-14 31-31s-14-31-31-31z" horiz-adv-x="1000" />

<glyph glyph-name="profile" unicode="&#xe85e;" d="M500 350c37 0 73 11 104 32s55 50 69 84c14 34 18 72 11 108-7 37-25 70-51 96-27 27-60 44-96 52-37 7-75 3-109-11-34-14-63-38-84-69s-32-67-32-104c0-50 20-98 55-133s83-55 133-55z m-88 276c23 23 55 37 88 37 25 0 49-8 69-21 21-14 37-34 46-57 10-22 12-47 8-72-5-24-17-46-35-64-17-17-39-29-64-34-24-5-49-2-72 7-23 10-42 26-56 46-14 21-21 45-21 70 0 33 13 65 37 88z m369-620c0-8-3-16-9-22s-14-9-22-9-16 3-22 9-9 14-9 22c0 58-23 114-64 155-41 41-97 64-155 64s-114-23-155-64c-41-41-64-97-64-155 0-8-3-16-9-22-6-6-14-9-22-9s-16 3-22 9c-6 6-9 14-9 22 0 75 30 146 82 199 53 53 124 82 199 83 75 0 146-30 199-83 53-53 82-124 82-199z" horiz-adv-x="1000" />

<glyph glyph-name="state-license" unicode="&#xe85f;" d="M438 38v31c0 51-43 94-94 94h-12c21 39 43 86 43 109 0 43-35 76-78 76s-78-33-78-76c0-23 22-70 43-109h-12c-52 0-94-43-94-94v-31c-17 0-31-14-31-32s14-31 31-31h282c17 0 31 14 31 31s-14 32-31 32z m-63 0h-156v31c0 17 14 31 31 31h94c17 0 31-14 31-31v-31z m250 343h-125c-17 0-31 14-31 32s14 31 31 31h125c17 0 31-14 31-31s-14-32-31-32z m250 188v-438c0-86-70-156-156-156h-156c-18 0-32 14-32 31s14 32 32 32h156c51 0 94 42 94 93v438c0 51-43 94-94 94h-250c-52 0-94-43-94-94v-127c0-17-14-31-31-31s-31 14-31 31v127c0 86 70 156 156 156h250c86 0 156-70 156-156z m-344-360c0-60 49-109 110-109s109 49 109 109-49 110-109 110-110-49-110-110z m157 0c0-25-21-46-47-46s-47 21-47 46 21 47 47 47 47-21 47-47z m31 329c0-18-14-32-31-32h-188c-17 0-31 14-31 32s14 31 31 31h188c17 0 31-14 31-31z" horiz-adv-x="1000" />

<glyph glyph-name="subscription-lineal" unicode="&#xe860;" d="M407 183c-6 0-12 2-17 5-10 7-14 20-10 32l27 86-69 56c-9 7-12 20-8 31s15 19 27 19h86l30 82c4 11 15 18 27 18s23-7 27-18l30-82h86c12 0 23-8 27-19 4-11 1-24-8-32l-68-55 28-85c3-12 0-24-10-32-10-7-23-8-33-1l-79 51-77-52c-5-3-10-4-16-4v0z m93-208c-207 0-375 168-375 375s168 375 375 375 375-168 375-375-168-375-375-375z m0 688c-172 0-312-141-312-313s140-312 312-312 313 140 313 312-141 313-313 313z" horiz-adv-x="1000" />

<glyph glyph-name="comment-filled" unicode="&#xe861;" d="M526 724c-108 8-215-32-291-109-77-77-117-183-109-292 14-198 189-348 408-348h185c86 0 156 70 156 156v208c0 203-153 372-349 385z m-182-421c-26 0-47 21-47 47s21 47 47 47 47-21 47-47-21-47-47-47h0z m156 0c-26 0-47 21-47 47s21 47 47 47 47-21 47-47-21-47-47-47z m156 0c-26 0-47 21-47 47s21 47 47 47 47-21 47-47-21-47-47-47z" horiz-adv-x="1000" />

<glyph glyph-name="cross-filled" unicode="&#xe862;" d="M500 725c-207 0-375-168-375-375s168-375 375-375 375 168 375 375c0 207-168 375-375 375z m125-456c13-11 14-31 2-44-12-13-32-13-44-2-1 1-1 1-2 2l-81 81-81-81c-12-12-32-12-44 1-12 12-12 31 0 43l81 81-81 81c-12 12-12 32 1 44 12 12 31 12 43 0l81-81 81 81c12 13 31 14 44 2 13-12 14-32 2-44-1-1-1-1-2-2l-81-81 81-81z" horiz-adv-x="1000" />

<glyph glyph-name="dark-mode" unicode="&#xe863;" d="M594-25c-52 0-104 11-152 33-48 21-92 52-127 91-35 39-62 85-78 135-16 50-22 103-16 156 9 81 45 158 102 217 56 60 130 100 211 113 53 8 106 6 158-6 13-4 25-11 35-20 10-10 17-22 21-36 3-14 3-28-1-41-4-13-11-26-21-35-142-130-130-333 25-450 11-9 20-20 25-34 5-13 7-27 4-40-2-14-8-27-17-38-9-11-20-19-34-24-43-14-89-21-135-21z m3 688c-18 0-35-2-53-4-67-12-129-45-176-94-47-50-77-113-85-181-4-44 0-89 14-130 13-42 35-81 65-113 43-47 99-79 161-94 61-15 126-12 186 8 2 2 4 3 6 5 2 2 3 5 4 8 0 2 0 5-1 8-1 2-3 5-5 7-185 140-200 390-30 545 2 2 4 4 5 6 0 3 0 6 0 8-1 3-3 6-4 8-2 2-5 3-7 4-27 6-53 9-80 9z" horiz-adv-x="1000" />

<glyph glyph-name="light-mode" unicode="&#xe864;" d="M500 194c-86 0-156 70-156 156s70 156 156 156 156-70 156-156-70-156-156-156z m0 250c-52 0-94-42-94-94s42-94 94-94 94 42 94 94-42 94-94 94z m31 156v94c0 17-14 31-31 31s-31-14-31-31v-94c0-17 14-31 31-31s31 14 31 31z m0-594v94c0 17-14 31-31 31s-31-14-31-31v-94c0-17 14-31 31-31s31 14 31 31z m-250 344c0 17-14 31-31 31h-94c-17 0-31-14-31-31s14-31 31-31h94c17 0 31 14 31 31z m594 0c0 17-14 31-31 31h-94c-17 0-31-14-31-31s14-31 31-31h94c17 0 31 14 31 31z m-540 165c12 12 12 32 0 44l-63 63c-12 12-32 12-44 0s-12-32 0-44l63-63c6-6 14-8 22-8s16 3 22 8h0z m437-437c12 12 12 32 0 44l-62 63c-12 12-32 12-44 0-13-12-13-32 0-44l62-63c6-6 14-9 22-9s17 3 23 9h-1z m-500 0l63 62c12 13 12 32 0 44-12 13-32 13-45 0l-62-62c-12-12-12-32 0-44 6-6 14-9 22-9s16 3 22 9h0z m438 437l62 63c12 12 12 32 0 44-12 12-32 12-44 0l-62-63c-13-12-13-32 0-44 6-6 14-9 22-9s16 3 22 9h0z" horiz-adv-x="1000" />

<glyph glyph-name="like-filled" unicode="&#xe865;" d="M874 319l-22-156c-12-77-77-134-155-134h-322v486l51 103c18 38 59 59 100 52 52-8 87-57 78-109l-10-64h125c45 0 88-19 118-54 29-34 43-79 36-124z m-749 22v-156c0-86 70-156 156-156h32v468h-32c-86 0-156-70-156-156z" horiz-adv-x="1000" />

<glyph glyph-name="my-contract" unicode="&#xe866;" d="M735 628l-51 51c-15 15-32 26-51 34-19 8-39 12-60 12h-198c-41 0-81-16-110-46-30-29-46-69-46-110v-437c0-42 16-82 46-111 29-29 69-46 110-46h250c42 0 81 17 111 46 29 29 46 69 46 111v385c0 21-4 41-12 60-8 19-20 36-34 50z m-44-45c5-4 9-9 12-14h-78v78c5-4 10-8 15-12l51-52z m28-452c0-24-10-48-28-66-17-17-41-27-66-27h-250c-25 0-49 9-66 27-18 18-28 42-28 66v438c0 25 10 49 28 66 17 18 41 28 66 28h188v-94c0-17 6-33 18-44 12-12 28-19 44-19h94v-375z m-94 313c8 0 16-4 22-9 6-6 9-14 9-22s-3-17-9-23c-6-5-14-9-22-9h-250c-8 0-16 4-22 9-6 6-9 14-9 23s3 16 9 22c6 5 14 9 22 9h250z m31-156c0-9-3-17-9-23-6-5-14-9-22-9h-250c-8 0-16 4-22 9-6 6-9 14-9 23s3 16 9 22c6 5 14 9 22 9h250c8 0 16-4 22-9 6-6 9-14 9-22z m-6-107c5-7 7-15 6-23-1-8-6-16-12-21-32-22-70-35-108-37-23 0-45 8-63 22-10 7-14 9-22 9-21-3-40-12-57-24-7-5-15-7-23-6-8 1-15 6-20 12-5 6-7 15-6 22 1 9 5 16 11 21 28 22 61 34 96 38 20-1 41-8 57-21 7-6 17-10 27-10 26 1 50 10 71 25 7 5 15 7 23 5 9-1 16-5 21-12z" horiz-adv-x="1000" />

<glyph glyph-name="restore" unicode="&#xe867;" d="M500 725c-92 0-181-34-250-96v65c0 8-3 16-9 22-6 6-14 9-22 9s-16-3-22-9c-6-6-9-14-9-22v-94c0-25 9-49 27-66 18-18 42-28 66-28h94c8 0 16 4 22 9 6 6 9 14 9 23s-3 16-9 22c-6 5-14 9-22 9h-94c-1 0-2 0-3 0 51 52 118 84 190 91 72 7 144-11 205-51 60-40 104-99 125-168 21-69 18-144-10-211-27-66-77-121-141-156-64-34-137-45-208-30-71 14-135 52-181 108-45 56-70 126-70 198 0 9-4 17-9 22-6 6-14 10-22 10s-17-4-23-10c-5-5-9-13-9-22 0-74 22-146 63-208 42-62 100-110 169-138 68-29 144-36 216-22 73 15 140 51 192 103 53 53 89 119 103 192 15 73 7 148-21 217-28 69-77 127-138 168-62 42-134 63-209 63z" horiz-adv-x="1000" />

<glyph glyph-name="account-executive" unicode="&#xe868;" d="M500 350c103 0 188 84 188 188s-85 187-188 187-187-84-187-187 84-188 187-188z m0 313c69 0 125-56 125-125s-56-125-125-125-125 56-125 125 56 125 125 125z m281-657c0-8-3-16-9-22-6-6-14-9-22-9s-16 3-22 9c-6 6-9 14-9 22 0 95-60 175-144 206l-48-71 35-125c5-21-13-41-38-41h-48c-25 0-43 20-37 41l34 125-48 71c-84-31-144-111-144-206 0-8-3-16-9-22s-14-9-22-9-16 3-22 9-9 14-9 22c0 155 126 282 281 282s281-127 281-282z" horiz-adv-x="1000" />

<glyph glyph-name="loan-officer" unicode="&#xe869;" d="M406 725c-103 0-187-84-187-187s84-188 187-188 188 84 188 188-84 187-188 187z m0-312c-69 0-125 56-125 125s56 125 125 125 125-56 125-125-56-125-125-125z m152-206h0c-8-15-27-20-42-11-33 19-71 29-110 29-120 0-218-98-218-219 0-17-14-31-32-31s-31 14-31 31c0 155 126 281 281 281 50 0 98-13 141-37 15-9 20-28 11-43z m317-107c0-52-42-94-94-94 0-17-14-31-31-31s-31 14-31 31h-9c-33 0-64 18-81 47-8 15-3 34 12 43 14 9 34 3 42-12 6-9 16-15 27-15h71c18 0 32 14 32 31 0 12-9 22-21 24l-95 16c-42 7-72 43-72 85 0 52 42 94 94 94 0 17 14 31 31 31s31-14 31-31h9c33 0 64-18 81-47 8-15 3-34-12-43-15-9-34-3-42 12-6 9-16 15-27 15h-71c-17 0-31-14-31-31 0-12 8-22 20-24l95-16c42-7 72-42 72-85z m-241 431c-12 13-12 32 0 44l69 68c26 26 68 26 94 0l69-68c12-12 12-31 0-44-12-12-32-12-44 0l-41 40v-127c0-17-14-31-31-31s-31 14-31 31v127l-41-40c-12-12-32-12-44 0z" horiz-adv-x="1000" />

<glyph glyph-name="target-audience" unicode="&#xe86a;" d="M346 570c26 0 49-11 67-28-42-28-69-76-69-129 0-11 1-21 3-30 0 0-1 0-1 0-52 0-94 41-94 93s42 94 94 94z m310-1c-26 0-50-11-67-29 41-28 67-75 67-127 0-11-1-21-3-31 1 0 2-1 3-1 52 0 94 42 94 94s-42 94-94 94z m-156-250c52 0 94 42 94 94s-42 93-94 93-94-42-94-93 42-94 94-94z m123-145c-19 49-68 82-123 82h0c-55 0-104-33-123-82-6-17 2-35 18-41 16-6 34 2 40 19 10 25 36 42 65 42s55-17 65-42c4-13 16-21 29-21 4 0 7 1 11 2 16 6 24 25 18 41z m-7 139c-17-6-26-23-21-40 5-16 23-25 39-20 7 2 15 3 22 3 29 0 55-17 65-42 5-12 17-20 29-20 4 0 8 0 11 2 16 6 24 24 18 40-19 49-68 83-123 83-14 0-27-2-40-6z m-272 6c-55 0-104-33-123-83-6-16 2-34 18-40 4-2 7-2 11-2 13 0 25 8 29 20 10 25 36 42 65 42 7 0 15-1 22-3 16-5 34 4 39 20 5 17-4 34-21 40-13 4-26 6-40 6z m0-281h-63c-51 0-93 42-93 93v63c0 17-14 31-32 31s-31-14-31-31v-63c0-86 70-156 156-156h63c17 0 31 14 31 31s-14 32-31 32z m500 187c-17 0-31-14-31-31v-63c0-51-43-93-94-93h-63c-17 0-31-14-31-32s14-31 31-31h63c86 0 156 70 156 156v63c0 17-14 31-31 31z m-125 500h-63c-17 0-31-14-31-31s14-31 31-31h63c51 0 94-43 94-94v-63c0-17 14-31 31-31s31 14 31 31v63c0 86-70 156-156 156z m-563-250c18 0 32 14 32 31v63c0 51 42 94 93 94h63c17 0 31 14 31 31s-14 31-31 31h-63c-86 0-156-70-156-156v-63c0-17 14-31 31-31z" horiz-adv-x="1000" />

<glyph glyph-name="time-fast" unicode="&#xe86b;" d="M428 28c6-5 10-13 10-22s-4-16-10-22-13-9-22-9h-250c-8 0-16 3-22 9s-9 14-9 22 3 17 9 22 14 10 22 10h250c9 0 17-4 22-10z m-272 72h188c8 0 16 3 22 9s9 14 9 22-3 17-9 22-14 10-22 10h-188c-8 0-16-4-22-10s-9-13-9-22 3-16 9-22 14-9 22-9z m0 125h125c9 0 17 3 22 9 6 6 10 14 10 22s-4 17-10 22c-5 6-13 10-22 10h-125c-8 0-16-4-22-10s-9-13-9-22 3-16 9-22 14-9 22-9z m615 384c-66 70-157 111-254 116-96 4-191-29-263-92-73-64-119-153-127-249-1-8 2-16 7-23 5-6 13-10 21-11 8-1 17 2 23 7 6 5 10 13 11 21 5 60 28 116 64 163s85 83 141 103c56 20 116 24 174 11 58-13 111-42 153-84 42-42 71-95 84-153 13-58 9-118-11-174-20-56-56-105-103-141-47-36-103-58-162-64-9 0-16-4-22-10-5-6-8-14-8-22 0-9 4-17 10-22 6-6 14-9 23-8 1 0 2 0 3 0 93 8 180 51 243 120s98 159 97 253c0 97-37 189-103 259z m-177-384c8 0 16 4 21 10 6 5 10 13 10 22s-3 16-9 21l-85 85v143c0 9-3 17-9 22s-14 10-22 10-16-4-22-10c-6-5-9-13-9-22v-156c0-8 3-16 9-22l94-94c6-5 13-9 22-9z" horiz-adv-x="1000" />

<glyph glyph-name="linkedin-filled" unicode="&#xe86c;" d="M875 250v-274h-156v244c0 58-1 132-80 132s-93-63-93-129v-248h-156v501h149v-69h2c21 40 72 81 147 81 158 0 187-103 187-238z m-738-275h156v501h-156v-501z m78 750c-50 0-90-40-90-90s40-91 90-91 90 41 90 91-40 90-90 90z" horiz-adv-x="1000" />

<glyph glyph-name="youtube-filled" unicode="&#xe86d;" d="M860 529c-9 32-34 57-66 66-59 15-294 15-294 15 0 0-235 0-293-15-32-8-58-34-67-66-15-58-15-179-15-179 0 0 0-121 15-179 9-32 34-57 67-66 59-16 293-16 293-16 0 0 235 0 294 16 32 8 57 34 66 65 15 59 15 179 15 179 0 0 1 122-15 180z m-435-290v223l195-112-195-111z" horiz-adv-x="1000" />

<glyph glyph-name="facebook" unicode="&#xe86e;" d="M559-25v342h117l17 133h-134v86c0 38 11 65 67 65h72v119c-13 2-55 5-105 5-103 0-174-62-174-176v-98h-117v-134h117v-342h140z" horiz-adv-x="1000" />
</font>
</defs>
</svg>
