<svg width="144" height="120" viewBox="0 0 144 120" fill="none" xmlns="http://www.w3.org/2000/svg">
<path d="M9.25099 13.3195H85.8762V35.5199H0.000595109V22.1998C0.000295792 17.3158 4.1632 13.3195 9.25099 13.3195Z" fill="#853900"/>
<path d="M0.000595109 35.5199C0.000595109 30.6359 4.1626 26.6402 9.2504 26.6402H53.9402C56.5613 26.6402 59.016 25.3563 60.5111 23.2035L71.4943 7.38844C74.3163 3.325 80.7884 1.5496e-08 85.8762 1.5496e-08H134.75C139.837 -0.000287316 144 3.99563 144 8.87969V104C144 112.837 136.837 120 128 120H16C7.16344 120 0 112.837 0 104L0.000595109 35.5199Z" fill="#FF6D00"/>
</svg>
