<svg width="80" height="81" viewBox="0 0 80 81" fill="none" xmlns="http://www.w3.org/2000/svg">
<rect y="0.166016" width="80" height="80" rx="40" fill="url(#paint0_linear_2962_4332)"/>
<path d="M53.2023 56.6987C53.964 59.1393 51.2613 61.1599 49.267 59.6408L41.5104 53.7324C40.6121 53.0482 39.3891 53.0482 38.4909 53.7324L30.7343 59.6408C28.74 61.1599 26.0372 59.1393 26.799 56.6987L29.8019 47.0775C30.1406 45.9922 29.769 44.804 28.8803 44.131L21.0502 38.2015C19.059 36.6936 20.0881 33.4261 22.5542 33.4261H32.1764C33.2842 33.4261 34.2652 32.6845 34.6037 31.5913L37.5732 22.0008C38.3307 19.5544 41.6705 19.5544 42.428 22.0008L45.3975 31.5913C45.736 32.6845 46.717 33.4261 47.8249 33.4261H57.4458C59.9118 33.4261 60.9409 36.6935 58.9499 38.2014L51.1208 44.131C50.2322 44.804 49.8606 45.9921 50.1993 47.0774L53.2023 56.6987Z" fill="white"/>
<defs>
<linearGradient id="paint0_linear_2962_4332" x1="-124.231" y1="45.6881" x2="336.625" y2="571.433" gradientUnits="userSpaceOnUse">
<stop stop-color="#8173F9"/>
<stop offset="0.0313202" stop-color="#B93FF6"/>
<stop offset="0.0657497" stop-color="#D425F4"/>
<stop offset="0.099558" stop-color="#F36D19"/>
<stop offset="0.141192" stop-color="#F00BF2"/>
<stop offset="0.227982" stop-color="#4B53F1"/>
<stop offset="0.317962" stop-color="#4B53F1" stop-opacity="0"/>
<stop offset="1" stop-color="#4B53F1" stop-opacity="0"/>
</linearGradient>
</defs>
</svg>
