<svg width="18" height="17" viewBox="0 0 18 17" fill="none" xmlns="http://www.w3.org/2000/svg">
<path d="M4.97018 9.29571V16.3707C4.97018 16.558 4.76412 16.6708 4.60318 16.5734C2.14174 15.0833 0.488219 12.4037 0.449948 9.33719C0.391131 4.62027 4.22208 0.702799 8.96406 0.63708C13.7909 0.570359 17.7248 4.44235 17.7248 9.22821C17.7248 12.361 16.039 15.102 13.5208 16.6031C13.4247 16.6604 13.3008 16.6416 13.2241 16.5604L10.3251 13.4915C10.2059 13.3652 10.2575 13.1591 10.4222 13.103C12.0405 12.5514 13.2039 11.025 13.2039 9.22841C13.2039 6.94346 11.3226 5.09553 9.01665 5.13379C6.75925 5.17126 4.97018 7.04985 4.97018 9.29571Z" fill="#DE3341"/>
</svg>
