<svg width="20" height="20" viewBox="0 0 20 20" fill="none" xmlns="http://www.w3.org/2000/svg">
<rect width="20" height="20" rx="4" fill="white"/>
<rect x="2" y="2" width="16" height="16" rx="4" fill="url(#paint0_linear_3246_2703)"/>
<path fill-rule="evenodd" clip-rule="evenodd" d="M3.70445 7.37305H7.59357C7.59357 7.37305 8.28228 7.41353 8.36325 8.02116C8.36325 8.02116 8.40379 8.38571 7.99865 8.70982L5.20338 11.5454H7.22892H7.67454C7.67454 11.5454 8.72785 11.6263 8.64682 12.5986L4.47413 12.5581C4.19056 12.5581 3.86645 12.4366 3.74494 12.072C3.62342 11.7074 3.74494 11.4643 3.98802 11.2213L6.86432 8.34527H4.79824C4.79824 8.42625 3.78553 8.26424 3.70445 7.37305Z" fill="white"/>
<path fill-rule="evenodd" clip-rule="evenodd" d="M9.28137 12.586V9.39425C9.28137 9.39425 9.04195 8.15742 10.5582 7.51908C10.5582 7.51908 11.7553 6.96053 12.7927 8.03774C13.3912 7.31958 14.3488 7.1999 15.1468 7.59888C15.5458 7.79837 16.1843 8.31704 16.304 9.3943V12.626C16.304 12.626 15.466 12.7058 15.2665 11.7483V9.31449C15.1867 8.1176 13.2316 8.03779 13.2715 9.43418V12.5861C13.2715 12.5861 12.3538 12.5861 12.234 11.7083V9.3943C12.1941 8.0378 10.1991 8.07767 10.3188 9.43418V11.5088C10.3188 11.5088 10.239 12.586 9.28137 12.586Z" fill="white"/>
<defs>
<linearGradient id="paint0_linear_3246_2703" x1="9.99998" y1="2.00001" x2="9.99998" y2="18" gradientUnits="userSpaceOnUse">
<stop stop-color="#3A8EF0"/>
<stop offset="0.9952" stop-color="#0043C5"/>
</linearGradient>
</defs>
</svg>
