<svg width="16" height="16" viewBox="0 0 16 16" fill="none" xmlns="http://www.w3.org/2000/svg">
<rect width="16" height="16" rx="4" fill="url(#paint0_linear_4358_5161)"/>
<path fill-rule="evenodd" clip-rule="evenodd" d="M1.70445 5.37305H5.59357C5.59357 5.37305 6.28228 5.41353 6.36325 6.02116C6.36325 6.02116 6.40379 6.38571 5.99865 6.70982L3.20338 9.54536H5.22892H5.67454C5.67454 9.54536 6.72785 9.62633 6.64682 10.5986L2.47413 10.5581C2.19056 10.5581 1.86645 10.4366 1.74494 10.072C1.62342 9.70741 1.74494 9.46433 1.98802 9.2213L4.86432 6.34527H2.79824C2.79824 6.42625 1.78553 6.26424 1.70445 5.37305Z" fill="white"/>
<path fill-rule="evenodd" clip-rule="evenodd" d="M7.28137 10.586V7.39425C7.28137 7.39425 7.04195 6.15742 8.55823 5.51908C8.55823 5.51908 9.75528 4.96053 10.7927 6.03774C11.3912 5.31958 12.3488 5.1999 13.1468 5.59888C13.5458 5.79837 14.1843 6.31704 14.304 7.3943V10.626C14.304 10.626 13.466 10.7058 13.2665 9.74826V7.31449C13.1867 6.1176 11.2316 6.03779 11.2715 7.43418V10.5861C11.2715 10.5861 10.3538 10.5861 10.234 9.70833V7.3943C10.1941 6.0378 8.19907 6.07767 8.31875 7.43418V9.50884C8.31875 9.50884 8.239 10.586 7.28137 10.586Z" fill="white"/>
<defs>
<linearGradient id="paint0_linear_4358_5161" x1="7.99998" y1="1.01236e-05" x2="7.99998" y2="16" gradientUnits="userSpaceOnUse">
<stop stop-color="#3A8EF0"/>
<stop offset="0.9952" stop-color="#0043C5"/>
</linearGradient>
</defs>
</svg>
