<svg width="25" height="25" viewBox="0 0 25 25" fill="none" xmlns="http://www.w3.org/2000/svg">
<path d="M13.6823 4.52025L17.7332 5.57826L15.1131 9.65963L14.8601 10.0543L13.6823 4.52025ZM9.22426 11.5731L7.2677 15.0811L8.94123 16.7585L10.7915 17.3487L13.4184 15.5997L9.22475 11.5726L9.22426 11.5731ZM19.1601 11.0189L22.459 9.22695L17.8942 5.65235L14.963 10.2188L19.1601 11.0189ZM14.4875 17.4174L18.5734 20.5L17.6244 18.3316L14.487 17.4179L14.4875 17.4174ZM15.0181 14.5639L13.6906 15.6189L13.697 15.6254L13.6611 15.6496L14.1228 17.1289L17.6928 18.1686L21.4426 17.4179L21.3244 14.9418L15.0186 14.5644L15.0181 14.5639ZM9.38521 11.3044L14.7149 10.2123L13.5267 4.6304L9.38472 11.3044H9.38521ZM23.1825 11.7989L22.5614 9.37118L19.3201 11.1321L22.428 14.1944L23.1825 11.7989ZM14.9005 14.433L14.7356 10.3872L9.38423 11.4837L13.5627 15.496L14.9 14.433H14.9005ZM7.11068 15.0025L9.03328 11.5554L9.02147 11.5578L9.04755 11.5158L1.81738 11.3677L3.58395 14.6074L7.11068 15.0025ZM19.1321 11.1923L14.9108 10.3877L15.0738 14.3915L21.3904 14.7694L22.3172 14.3318L19.1316 11.1923H19.1321ZM1.8287 11.1918L5.69113 11.2664L6.34381 5.96797L4.06878 7.79454L1.8287 11.1918ZM9.82575 5.14014L6.58499 5.82769L9.21294 11.2501L13.4017 4.5L10.8151 4.69609L9.82575 5.14014ZM5.86734 11.2704L9.06183 11.3405L6.50772 6.06972L5.86734 11.2704Z" fill="#FF6D00"/>
</svg>
