<svg width="230" height="49" viewBox="0 0 230 49" fill="none" xmlns="http://www.w3.org/2000/svg">
<path d="M75.3845 35.8325V14.6931H83.3067C85.027 14.6931 86.5007 15.3036 87.7278 16.5231C88.9535 17.7441 89.5677 19.2289 89.5677 20.976C89.5677 22.3851 89.0627 23.5958 88.0542 24.6079C88.9638 25.0835 89.6918 25.7592 90.2352 26.632C90.7801 27.5048 91.0518 28.4976 91.0518 29.6104C91.0518 31.3575 90.439 32.8304 89.2133 34.0306C87.9862 35.2324 86.4624 35.8325 84.6431 35.8325H75.386H75.3845ZM80.1039 23.2372H82.7752C83.4072 23.2372 83.9314 23.0401 84.3478 22.643C84.7642 22.2459 84.9709 21.7495 84.9709 21.1538C84.9709 20.5581 84.7627 20.0528 84.3478 19.6364C83.9328 19.22 83.4086 19.0111 82.7752 19.0111H80.1039V23.2387V23.2372ZM80.1039 31.4849H84.2577C84.8912 31.4849 85.4154 31.2819 85.8303 30.8744C86.2453 30.4669 86.4535 29.9675 86.4535 29.3704C86.4535 28.7732 86.2409 28.2738 85.8156 27.8663C85.3888 27.4588 84.8602 27.2558 84.2282 27.2558H80.1039V31.4834V31.4849Z" fill="white"/>
<path d="M93.6624 35.8323V20.9447H98.1425V23.1777C98.3788 22.5035 98.8247 21.9315 99.4774 21.4663C100.13 20.9995 100.861 20.7668 101.672 20.7668C102.186 20.7668 102.67 20.8261 103.125 20.9447V25.4997C102.434 25.2626 101.771 25.1426 101.137 25.1426C100.188 25.1426 99.4508 25.476 98.9266 26.1413C98.4024 26.8067 98.141 27.6854 98.141 28.7745V35.8323H93.6609H93.6624Z" fill="white"/>
<path d="M117.488 33.9119C115.966 35.41 114.126 36.1598 111.97 36.1598C109.814 36.1598 107.976 35.4115 106.452 33.9119C104.928 32.4123 104.167 30.5719 104.167 28.3892C104.167 26.2065 104.928 24.3646 106.452 22.8665C107.976 21.3684 109.814 20.6187 111.97 20.6187C114.126 20.6187 115.966 21.367 117.488 22.8665C119.012 24.3646 119.774 26.2065 119.774 28.3892C119.774 30.5719 119.012 32.4138 117.488 33.9119ZM109.612 30.9794C110.235 31.6344 111.02 31.9618 111.97 31.9618C112.919 31.9618 113.706 31.6344 114.33 30.9794C114.953 30.3245 115.264 29.462 115.264 28.3892C115.264 27.3164 114.953 26.454 114.33 25.799C113.706 25.1441 112.921 24.8166 111.97 24.8166C111.019 24.8166 110.235 25.1441 109.612 25.799C108.987 26.454 108.675 27.3164 108.675 28.3892C108.675 29.462 108.987 30.3245 109.612 30.9794Z" fill="white"/>
<path d="M132.532 35.8322L127.014 29.1923V35.8322H122.534V13.5015H127.014V26.2746L131.347 20.9446H136.658L131.199 27.6734L137.963 35.8322H132.534H132.532Z" fill="white"/>
<path d="M145.231 36.1598C142.937 36.1598 141.052 35.4263 139.579 33.9578C138.106 32.4879 137.368 30.6223 137.368 28.3596C137.368 26.0969 138.115 24.2905 139.608 22.8221C141.101 21.3536 142.975 20.6201 145.231 20.6201C146.32 20.6201 147.343 20.8098 148.303 21.1862C149.261 21.5625 150.113 22.1078 150.854 22.8236C151.597 23.5378 152.175 24.4609 152.591 25.593C153.007 26.7251 153.195 28.0054 153.155 29.4339H141.732C141.81 30.2474 142.166 30.9275 142.801 31.4743C143.433 32.0196 144.323 32.2923 145.472 32.2923C146.125 32.2923 146.718 32.1589 147.251 31.8907C147.786 31.621 148.142 31.2891 148.32 30.892H153.009C152.535 32.4612 151.584 33.7311 150.16 34.7032C148.735 35.6767 147.093 36.1613 145.234 36.1613L145.231 36.1598ZM145.113 24.1913C144.263 24.1913 143.555 24.4091 142.991 24.8462C142.427 25.2833 142.046 25.8598 141.848 26.574H148.199C147.981 25.7605 147.581 25.1604 146.997 24.7721C146.414 24.3854 145.787 24.1913 145.115 24.1913H145.113Z" fill="white"/>
<path d="M155.943 35.8323V20.9447H160.423V23.1777C160.66 22.5035 161.105 21.9315 161.758 21.4663C162.411 20.9995 163.142 20.7668 163.952 20.7668C164.466 20.7668 164.951 20.8261 165.405 20.9447V25.4997C164.714 25.2626 164.051 25.1426 163.418 25.1426C162.468 25.1426 161.732 25.476 161.207 26.1413C160.683 26.8067 160.422 27.6854 160.422 28.7745V35.8323H155.942H155.943Z" fill="white"/>
<path d="M171.194 35.8325L180.215 14.6931H184.487L193.508 35.8325H188.582L186.712 31.3663H177.988L176.119 35.8325H171.193H171.194ZM182.35 20.9152L179.679 27.2573H184.99L182.35 20.9152Z" fill="#FF6D00"/>
<path d="M195.702 35.8325V14.6931H200.42V35.8325H195.702Z" fill="#FF6D00"/>
<path d="M223.919 30.8593C224.948 29.1122 225.462 27.2466 225.462 25.2625C225.462 22.2648 224.399 19.6939 222.273 17.5497C220.146 15.4071 217.58 14.3342 214.574 14.3342C211.567 14.3342 208.999 15.4011 206.873 17.5349C204.746 19.6687 203.683 22.2441 203.683 25.2625C203.683 28.2809 204.746 30.8548 206.873 32.9886C208.999 35.1224 211.566 36.1893 214.574 36.1893C217.026 36.1893 219.191 35.4647 221.071 34.0155L223.324 35.8322H230L223.918 30.8608L223.919 30.8593ZM214.559 32.2477C210.715 32.2477 207.598 29.1196 207.598 25.2625C207.598 21.4054 210.714 18.2773 214.559 18.2773C218.404 18.2773 221.52 21.4039 221.52 25.2625C221.52 29.1211 218.402 32.2477 214.559 32.2477Z" fill="#FF6D00"/>
<path d="M35.5946 0.906213L47.7475 4.08023L39.8873 16.3244L39.1283 17.5083L35.5946 0.906213ZM22.2206 22.0649L16.3509 32.5886L21.3716 37.6208L26.9223 39.3916L34.8032 34.1445L22.2221 22.0634L22.2206 22.0649ZM52.0283 20.4023L61.9248 15.0263L48.2303 4.3025L39.4369 18.0018L52.0283 20.4023ZM38.0104 39.5975L50.2681 48.8455L47.4211 42.3404L38.009 39.599L38.0104 39.5975ZM39.6023 31.0372L35.6198 34.2023L35.6389 34.2216L35.5312 34.2942L36.9162 38.7322L47.6264 41.8514L58.8755 39.599L58.5211 32.1707L39.6038 31.0387L39.6023 31.0372ZM22.7035 21.2588L38.6927 17.9825L35.128 1.23665L22.702 21.2588H22.7035ZM64.0955 22.742L62.2319 15.459L52.5082 20.7416L61.8318 29.9288L64.0955 22.742ZM39.2494 30.6445L38.7547 18.5071L22.7005 21.7967L35.2358 33.8333L39.2479 30.6445H39.2494ZM15.8799 32.353L21.6477 22.0115L21.6122 22.0189L21.6905 21.893L0 21.4484L5.2997 31.1676L15.8799 32.353ZM51.9441 20.9224L39.2804 18.5085L39.7691 30.52L58.719 31.6536L61.4995 30.3407L51.9426 20.9224H51.9441ZM0.033963 20.9209L11.6212 21.1447L13.5793 5.24937L6.7542 10.7291L0.033963 20.9209ZM24.0251 2.76587L14.3028 4.82854L22.1867 21.0958L34.753 0.845459L26.9932 1.43373L24.0251 2.76587ZM12.1499 21.1565L21.7333 21.3669L14.071 5.55463L12.1499 21.1565Z" fill="#FF6D00"/>
</svg>
