<svg width="25" height="25" viewBox="0 0 25 25" fill="none" xmlns="http://www.w3.org/2000/svg">
<rect width="25" height="25" fill="#FF6D00"/>
<path d="M4.46118 17.3343V7.66575H6.32408V15.884H10.5605V17.3343H4.46118Z" fill="#F6F8FA"/>
<path d="M15.7641 17.5C14.8257 17.5 13.9978 17.2882 13.2802 16.8646C12.5626 16.4411 12.0015 15.8564 11.5967 15.1105C11.1919 14.3554 10.9895 13.4853 10.9895 12.5C10.9895 11.5147 11.1919 10.6492 11.5967 9.90331C12.0015 9.14825 12.5626 8.55893 13.2802 8.13536C13.9978 7.71179 14.8257 7.5 15.7641 7.5C16.7116 7.5 17.5442 7.71179 18.2617 8.13536C18.9793 8.55893 19.5359 9.14825 19.9315 9.90331C20.3362 10.6492 20.5386 11.5147 20.5386 12.5C20.5386 13.4853 20.3362 14.3554 19.9315 15.1105C19.5359 15.8564 18.9793 16.4411 18.2617 16.8646C17.5442 17.2882 16.7116 17.5 15.7641 17.5ZM15.7641 15.8287C16.3528 15.8287 16.8588 15.6952 17.282 15.4282C17.7144 15.1519 18.0502 14.7652 18.2893 14.268C18.5285 13.7707 18.6481 13.1814 18.6481 12.5C18.6481 11.8094 18.5285 11.2201 18.2893 10.732C18.0502 10.2348 17.7144 9.85267 17.282 9.58563C16.8588 9.3186 16.3528 9.18508 15.7641 9.18508C15.1845 9.18508 14.6785 9.3186 14.2462 9.58563C13.8138 9.85267 13.478 10.2348 13.2388 10.732C12.9996 11.2201 12.88 11.8094 12.88 12.5C12.88 13.1814 12.9996 13.7707 13.2388 14.268C13.478 14.7652 13.8138 15.1519 14.2462 15.4282C14.6785 15.6952 15.1845 15.8287 15.7641 15.8287Z" fill="#F6F8FA"/>
</svg>
